<svg id="Layer_1" data-name="Layer 1" xmlns="http://www.w3.org/2000/svg" viewBox="0 0 1029.8 629.35"><path d="M1263.6,710.78a9.16,9.16,0,0,1,0-2.16c2-7.74-.77-13.21-6.91-18.27-7.36-6.05-9.88-14.91-10.47-24.2-.31-5,0-10.12-.38-15.16-.3-4.69-2.46-5.68-6.43-3.16-2.28,1.45-4.36,3.23-6.67,4.62-10.4,6.28-20.44,5.15-29.21-3.19-10-9.49-9.91-9.39-20.46,0-8.58,7.6-18.19,12.11-29.74,7.1-7.86-3.4-13.14-9.66-15.85-17.63-1.9-5.59-2.76-11.55-3.88-17.39-.65-3.41-2.26-5.42-5.81-6.16-32.68-6.91-46.1-25.58-42.65-59.47.48-4.75-.06-8.46-4.74-10.93-20.93-11-25.08-30.81-22.09-50.25.89-5.81,3.21-11.44,5.16-17,1.24-3.56,1.79-7-1.77-9.21-27.5-17.14-22.23-45.26-6.13-68a55.23,55.23,0,0,1,9.3-9.73c3.33-2.86,5-5.78,4.08-10.33-1.93-9.28.2-17.81,5-25.95,7.48-12.66,16.44-23.66,29.93-30.49,2-1,4.25-4.76,3.83-6.68-2.72-12.56,2.09-22.75,9.2-32.26,9.44-12.63,20.84-21.92,37.82-21.93,2.58,0,5.46-2.35,7.68-4.22,6.06-5.11,11.64-10.78,17.79-15.76A14,14,0,0,1,1196,241c3.44,1.66,6.25,1.11,8.68-1.82.8-1,1.7-1.86,2.58-2.77,13.15-13.71,26.38-14.49,41.09-2.44,7.63,6.25,7.67,6.3,15.43.82,8-5.64,16.69-6.67,25.82-4a55.4,55.4,0,0,1,29.32,20.32c4.84,6.42,5.47,6.56,12.28,2.24,8.12-5.13,15.92-3.7,23.4,1.13a78.7,78.7,0,0,1,27,29.1c2.39,4.44,5.91,6.37,10.42,8.48a55.37,55.37,0,0,1,17.74,12.69c8.48,9.55,15.55,20.33,23.42,30.44,2.27,2.9,5.21,5.3,7.93,7.84,2,1.83,4.41,3.24,6.07,5.31,10.73,13.33,19.4,27.91,24.68,44.23,4,12.48,5.27,24.75-5.22,35.43-1.58,1.61-1.43,5.36-1.33,8.1.28,8.28,1.38,16.54,1.33,24.81-.06,10.32-4.9,18.51-12.55,25.44a14.68,14.68,0,0,0-4.46,9.08c-1,18.23-9.07,32.47-23.68,43-3.88,2.81-5.77,5.85-5.83,10.73-.25,18-18.82,38.1-36.79,39.76-5.77.53-10.45,2.45-14.29,6.67a14.62,14.62,0,0,1-2.35,2.24c-9.11,6.36-16,13.64-16.86,25.91-.31,4.54-4.81,9.1-8.1,13.07-2.9,3.51-3.74,6.6-1.89,10.82,5.65,12.89,5.46,25.36-2,37.82-1.79,3-1.39,8-.49,11.77,2.76,11.42,2.57,22.23-4.36,32.17a34.57,34.57,0,0,1-6.17,6.78c-7.58,6.34-16.59,6.38-24.13,0-3.49-2.94-6.44-3.79-10.59-1-10.81,7.18-19.6,4.78-24.87-7.14-2.36-5.32-3.11-11.35-4.58-17.06Zm103.31-283,2.77-.78c-1.3-4.72-1.37-10.39-4.15-13.95-6.08-7.79-9.75-16.28-12.18-25.68-.8-3.11-2.6-6.68-5.08-8.51a45.33,45.33,0,0,1-15.35-19.22c-1.87-4.5-5-6.47-9.89-7.05-11.26-1.35-21.76-4.57-30.49-12.64-2.36-2.18-7-3.14-10.34-2.78a51,51,0,0,1-35-8.53,16.45,16.45,0,0,0-10.49-2.55,55.5,55.5,0,0,1-28.24-2.72c-4.29-1.63-7.24-.4-10.81,2.26-4.23,3.13-9.24,6.48-14.23,7.05a177.6,177.6,0,0,1-31.2.55c-5.67-.35-10.58.2-14.49,4.07a61.22,61.22,0,0,0-9.51,11.69c-4.06,6.75-5.25,14.14-2.49,21.86,2.39,6.68,7.17,10.05,14.08,11.05,1.19.17,3,2,3,3.14s-1.55,2.73-2.81,3.39c-12.38,6.51-20.7,22.19-18.78,36.07.86,6.18,3.66,11.24,9.28,14.52,5.4,3.15,5.21,4.69,1.79,9.71-3.81,5.6-7.62,11.5-9.85,17.82-5.31,15,1.47,31.63,14.63,38.05,7.63,3.72,8,4.35,6.28,12.49-2.2,10.45-1.56,20.47,4.3,29.75,6.88,10.9,16.84,15.08,29.4,13.31,2.87-.4,6.42,1.28,9.09,2.92,4.56,2.81,8.41,6.82,13.09,9.35,1.78,1,6.33.09,7.36-1.45,3.37-5,7.75-6.43,13.38-6.49,6-.07,7.07-2,5.93-8a102.9,102.9,0,0,1-2.17-15.46c-.17-4.48,2.24-7.88,6.74-9.46,8.17-2.86,8.17-2.88,7.33-11.74-1.26-13.4,4-19.68,17.43-20.25,5.12-.22,8-2,8.78-7.37,1-7,5-11.54,12.07-12.88,14.7-2.78,28.76,5.19,33.46,19.43,1.56,4.71,1.83,9.88,2.37,14.87s11.55,15.8,16.45,15.85a5.43,5.43,0,0,0,3.07-.85c5.63-4.14,12-4.47,18.63-4.06,4.56.29,6.78-1.9,7.92-6.33,1.23-4.83,3.48-9.4,5-14.17,1.15-3.61,2.73-7.39,2.59-11.05-.43-11.58-.32-22.69,8.06-32.17,1.43-1.62.82-5.7.16-8.39C1371.76,444.15,1369.25,436,1366.91,427.74Z" transform="translate(-445 -225.53)" style="fill:#fff"/><path d="M452.84,795.88c.36-12,3.59-23.06,7.65-33.92,1.88-5,1.05-8.24-3.55-11.44-11.85-8.24-13.34-20.49-11-33.4,2.84-15.69,10.06-29.69,18.41-43.1,4-6.4,4-7.68-1.84-12-12.72-9.44-15.18-22.37-12.18-36.76,3.58-17.2,11.73-32.55,21-47.28,4.93-7.84,4.91-8.55-3.46-12.81-11.13-5.65-16.82-16.65-12.61-28.44,3.6-10.07,9.1-19.54,14.53-28.83,4.05-6.92,4.3-7.88-2.77-11.34-11.11-5.42-16.19-15.61-12.25-28.57,2.9-9.56,7.72-18.6,12.26-27.58,3.55-7,3.88-7.58-1.4-13.15-6.83-7.22-9-16-7.86-25.52,1.73-14,7.67-26.34,16.64-37.07,3.61-4.32,4.24-7.75.91-12.43-8.78-12.32-3.44-34.5,4.8-44.21a5.6,5.6,0,0,1,2.51-2c12.82-2.81,24.59-12.55,39-5.86,1.43.66,4.65-1,6.21-2.5,2-1.92,3.15-4.81,4.87-7.12,6.59-8.89,15.62-10.25,24.55-3.79,9.93,7.18,9.93,7.18,19.38-.27,10-7.92,19.48-7.24,28.26,2.16a67.93,67.93,0,0,1,4.65,6c2.53,3.39,5.23,3.46,8.12.48,1.39-1.43,2.73-2.9,4.18-4.25,10.23-9.56,22.84-9.56,33,0a9.53,9.53,0,0,1,1.89,1.92c4.63,7.83,10.11,8.82,18.35,4.4,6.67-3.57,14.25-1.72,20.42,3,15.19,11.66,21.94,27.28,21.1,46.29q-.48,10.79-1,21.58a43.21,43.21,0,0,1-12.05,28.27c-4.2,4.46-9.14,6.37-15.17,4.4-4.39-1.44-7,.48-9.49,4-3.28,4.72-6.63,9.54-10.75,13.47-7.64,7.28-16.14,6.86-23.39-.75a65.24,65.24,0,0,1-7-9.6c-3.24-5-4.92-5.37-10.06-2.13a59.65,59.65,0,0,1-10,5.41c-6,2.31-12.14,2.3-17.66-1.42-4.44-3-7.84-2.27-11.4,1.52a18,18,0,0,1-6.73,4.32c-4.22,1.53-5.24,4.22-4.86,8.39a139.25,139.25,0,0,1,.78,18.36A23.58,23.58,0,0,1,575,452.54c-2.6,4.59-2.44,8.64-.54,13.36,6.22,15.42,9.32,31.08,3.25,47.47-1,2.63-.25,6,.11,9,1.38,11.61,3.25,23.17,4.26,34.81.44,5.14,2,7.79,7.24,8.93,8.62,1.85,16,1.7,24.67.49a27.86,27.86,0,0,1,14.6,1.89c5.81,2.61,9.68,1.89,13.89-2.57a39.17,39.17,0,0,1,9.44-7.1c6.49-3.58,13.24-3.63,19.54.55,4.35,2.89,7.7,2.53,11.41-1.28,6-6.12,10.16-6.68,17.36-2.2,12.58,7.84,21.83,18.34,24.42,33.51,1.47,8.58-.13,16.4-5.67,23.46a33.54,33.54,0,0,0-5.16,9.95,58.78,58.78,0,0,1-14.73,23.7c-5.26,5.2-11.33,7.72-18.69,4.56-3.92-1.68-6.36.13-8.77,3.11-3.95,4.9-7.73,10.13-12.48,14.16-10.42,8.85-21.24,7.19-29.44-3.75-.65-.87-1.23-1.78-1.83-2.69-4.12-6.27-5.53-6.34-10.2-.54-1.13,1.4-2.3,2.79-3.53,4.1-8.21,8.7-13.83,8.86-22.56.7-5-4.69-6.54-4.69-10.88.6-3.72,4.53-8.06,7.71-14.1,8.12-3.88.25-5.52,2.43-6.13,6.25-.83,5.3-2.34,10.5-3.46,15.77a15.45,15.45,0,0,0-.59,5.32c1.41,9.46,2.61,19,4.69,28.3,2.54,11.38,2.67,22.22-3.87,32.36-2.41,3.73-1.48,7.06.46,10.65,5.73,10.59,9.2,21.78,6,33.84-3.16,11.76-9.89,21.38-20.64,27.34-3.53,2-8.3,2.57-12.43,2.35-4.82-.25-7.76,1.21-10.33,5.14a42.49,42.49,0,0,1-7.72,9c-6.32,5.41-14.21,5-19-1.77-3.2-4.56-5.22-10.23-6.62-15.69-1.31-5.17-3.09-7.36-8.82-6.45-10.61,1.67-18.42-3.23-22-14C454.31,807.73,453.9,801.69,452.84,795.88Z" transform="translate(-445 -225.53)" style="fill:#fff"/><path d="M892.45,620.5c-5.67-1.8-9.65,2.79-14.71,5.53-9.2,5-12.16,11.18-10.67,21.73,1.72,12.1-3.1,22.43-13.4,30.16-2.36,1.77-3.47,6.64-3.36,10,.51,16.24-4,30.85-14,43.38-3.38,4.24-8.73,7.25-13.71,9.75-3.64,1.83-5.73,3.81-6.44,7.79-2.6,14.64-8.9,27.43-19.71,37.77-9.37,9-18.27,9.61-29.37,3.1a9.53,9.53,0,0,0-7.84-.13c-18.54,9.62-40.09-2.36-41.91-23.43-.84-9.68,1.56-18.66,5.39-27.34,6.27-14.17,14.18-27.23,26.21-37.38,3-2.53,4.65-5.46,3.56-9.5-5-18.73,1.16-35.19,10.26-51.12,6.27-11,14.75-20,24.29-28.15,5-4.24,5.33-6.23,1.22-11.32-12.43-15.39-13-31.84-4.84-49.22,6.85-14.53,16.14-26.94,30.34-35.07,4.42-2.54,5.47-5.79,3.13-10.39-15.58-30.72,8.85-66,29.93-75.24,8.17-3.58,8.13-4,5.3-12.09q-12.48-35.78,7.53-68c3.18-5.14,7.18-7.71,13.62-5.94,1.73.48,5-1,6.12-2.61,4.36-6.35,10-8.44,17.35-6.93,2.48.5,5,.76,7.51,1.09a13.21,13.21,0,0,0,11.36-3.69c8-7.38,14.11-7.76,23.49-2.09,22.5,13.58,35.51,33.8,41.25,59.07.48,2.1,1.11,4.46.59,6.41-1.94,7.3,1.2,13.35,3.87,19.71,5,11.81,9.41,23.82,14.37,35.63,2.37,5.64,5.65,10.9,8.09,16.52,6,13.88,12.6,27.6,17.48,41.89s3,27.9-9.77,38.21c-3.62,2.92-2.71,6.56-1.7,10.42,3.63,13.78,7.77,27.48,10.26,41.48,1.27,7.19-.88,14.92-.82,22.41a23.17,23.17,0,0,0,2.56,11c8,13.73,13,28.1,12.51,44.2-.3,9.71-3,18.58-8.75,26.29-3.29,4.4-3.5,8.2-.68,12.86a55.23,55.23,0,0,1,8.14,32.08c-.64,11.64-5.53,21-14.68,28.41a29.15,29.15,0,0,0-7.26,9.12c-4.69,9.1-10.29,17.4-18.06,24.13-9,7.84-16.08,7.28-24.29-1.39-1.44-1.52-4.5-2.75-6.44-2.34-12.08,2.59-18-.44-20.2-12.34-1.19-6.37-3-10.37-10-12-3.21-.73-6.36-4.69-8.21-7.94-7-12.41-7.26-25.95-4.61-39.49,1.73-8.83,4.9-17.37,6.76-26.19a116.24,116.24,0,0,0,2.16-19.18c.49-11.86.2-23.76.84-35.61.25-4.69-.42-7.79-4.85-10.22a167.12,167.12,0,0,1-16.49-10.7,16.27,16.27,0,0,1-4.41-5.37C902.3,620.42,902.38,620.38,892.45,620.5Zm59-148.06c.91-7.68-1.64-15.5-8.66-21.91-1.71-1.55-2.27-4.38-3.32-6.65-3-6.53-5.49-13.37-9.14-19.53-3.74-6.31-10.07-8.68-17.34-7.17-6.88,1.42-10.26,6.92-11.9,12.89-3.38,12.34-5.91,24.9-8.86,37.35-2.12,9-4.19,18.85-11.73,24.32-13.27,9.63-15,22.69-13.92,37,.7,9,5.84,15.53,14.91,17.9,4.16,1.08,5.52,3.32,5.44,7.32a97.33,97.33,0,0,0,.33,14.6c.88,6.75,5.92,9,11.83,5.65a34.91,34.91,0,0,0,6.94-5.13c3.36-3.26,6.14-3.4,9.75-.13,6.21,5.61,13,5,17.35-2.07,2.2-3.55,3-8.36,3.2-12.65.21-5,0-9.56,3.74-13.59,5.81-6.21,7.45-13.44,5.67-22-1.35-6.53-3.61-13.55.24-20.1C950.44,490.86,951.46,482.56,951.43,472.44Z" transform="translate(-445 -225.53)" style="fill:#fff"/></svg>