<svg id="Layer_1" data-name="Layer 1" xmlns="http://www.w3.org/2000/svg" viewBox="0 0 1919.65 366.84"><path d="M485.06,622.17c-16.15,1.27-27.85-12-24.55-27.49a114.37,114.37,0,0,1,6.88-20.26c1.57-3.74,1.45-6.22-1.67-8.89-8.63-7.41-11.09-16.57-7.82-27.54a53.85,53.85,0,0,1,11-20.08c3.9-4.53,3.81-5.5-.74-9.1-8.42-6.65-11-15.26-8.51-25.48a36.82,36.82,0,0,1,13.49-21c3.17-2.46,4.16-4.85,2.28-8.68-3.58-7.29-1-14.11,2.73-20.44,1.94-3.33,5-6,7.28-9.14,1.11-1.56,2.4-3.87,2-5.46-3-12.7,3.72-21.37,12.06-29.12,4.88-4.53,10.74-7.37,17.91-5.76,3.24.73,4.86-1.81,6.57-4,7.08-9.07,16.08-14.79,27.79-15.6a25.42,25.42,0,0,1,20,7.2c3.81,3.59,4.74,3.52,8.28-.24,5.72-6.07,12.53-7.82,20.31-4.62,11.49,4.72,19.6,13.23,25.2,24.11,1.81,3.52,4,5.68,8.07,5.61,8-.15,14.37,3.59,20,8.73,8.31,7.63,14,17,15.56,28.25.63,4.62-.23,9.59-1.22,14.23-.71,3.32-.32,5.48,2.52,7.35,10.71,7.06,16.24,17.37,18.42,29.73a28,28,0,0,1-4.25,20.95c-1.71,2.6-2.3,4.87.28,7.29,12.53,11.79,12.08,31.6-.87,44.46a62.93,62.93,0,0,1-7.25,6,6,6,0,0,0-2.56,6.76c3.16,15.19-1.61,25.57-14.86,33.77-1.8,1.11-3.77,3.75-3.76,5.67.06,8-3.91,13.29-9.93,17.63-8.83,6.35-19.13,8.84-29.51,11-6.51,1.34-13.15,2-19.67,3.31a11.53,11.53,0,0,0-5.33,2.89c-8.58,8.14-18.55,13.56-30.28,15.18-8.95,1.24-16.42-1.84-21.77-9.39-3.12-4.4-3.75-4.58-8.69-2.28-17,7.88-34.59-.62-39-18.82-.34-1.39-.33-3.23-1.22-4C488.85,623.53,486.82,623,485.06,622.17Zm85.47-60.51c.24.58.47,1.15.71,1.72,2.44-1.49,5.25-2.6,7.22-4.56a27,27,0,0,1,11.4-7.15c2.71-.84,5.15-3.29,7.17-5.5,8.73-9.59,5.49-23,10.5-33.8a1,1,0,0,0,0-.39,71,71,0,0,0-6.21-28.38,28.45,28.45,0,0,0-8.49-10.44c-3.85-3.16-6.93-7.26-10.57-10.7-1.62-1.52-3.69-3.19-5.74-3.49-3.75-.54-6.71-1.9-9-4.83s-4.39-2.41-7-.4a59.49,59.49,0,0,1-9.22,5.76c-4.36,2.17-5,2.8-3.48,7.53,2.1,6.65,1,12.83-2,18.92a98.44,98.44,0,0,0-5.22,11.7,131.2,131.2,0,0,0-4.29,15.83c-.55,2.66-.18,5.55,0,8.33.32,4.74.78,9.47,1.27,14.19.23,2.28,0,4.91,1.12,6.74,3.72,6.28,7.9,12.28,11.94,18.36,2,3,4.81,3.65,8.23,2.85C562.71,563.06,566.63,562.41,570.53,561.66Z" transform="translate(-0.35 -356.56)" style="fill:#fff"/><path d="M1086.63,512.48c.66-4.35.71-8.92,2.17-13,1.07-3,3.67-5.65,6.18-7.76,2.69-2.26,3.23-4.36,2.68-7.78a206.59,206.59,0,0,1-2.35-22.48,14.31,14.31,0,0,1,5.72-12.33c2.37-1.84,2.51-4.12,2.33-7-.59-8.94-1.18-17.92-1-26.86.16-6.47,2.83-12.32,7-17.51a11.26,11.26,0,0,0,2.21-7.05c-.37-8.2.91-15.62,7.48-21.31,8-6.89,17.64-5.35,23.51,3.43,1.9,2.85,4.64,5.13,7,7.68,1.94,2.09,4.41,3.89,5.74,6.32,6.88,12.57,8.39,25.54,1,38.41-2.41,4.2-2.56,7.29-.43,11.81,6.17,13.08,4.35,26-3.28,38-2.16,3.41-2.71,6.29-1.43,10.2a31,31,0,0,1-4.35,28.69,12.14,12.14,0,0,0-2.17,10.56c2.64,11.88.32,22.87-7.21,32.51-2.46,3.14-2.85,5.95-1.4,9.7,4.56,11.82,2.42,22.9-4.95,32.91-2.61,3.54-4.32,6.86-3.7,11.43.72,5.28-1.49,9.87-4.17,14.37a14.32,14.32,0,0,0-2.09,7.57c.65,13-13,26.13-26,24.38-3.18-.43-5.5.14-7.7,2.46-2.75,2.88-6.15,3.6-10.06,2.52-8.91-2.47-14.59-9.28-15.18-18.72-.2-3.25-.07-6.52,0-9.78s-1.2-4.55-4.51-4.26c-6.23.55-10.84-2.36-12.16-8.48-1-4.51-.85-9.28-1-13.94a52,52,0,0,1,.57-7c.33-2.92-.84-4.54-3.73-5.47-7.53-2.4-10.59-7.38-9.41-15.29a112.87,112.87,0,0,1,2.64-13c1-3.64.18-5.87-3.32-7.57-9.18-4.43-8.86-4.48-10.76,5.44a42.66,42.66,0,0,1-4.72,12.25c-1.58,2.89-1.43,5.33-.56,8.18,3.24,10.73,4,21.62.72,32.41a39.13,39.13,0,0,1-5.78,10.92c-1.8,2.55-2.66,4.76-2,7.9,3.15,14.71,3.17,29.37-2.48,43.52-1.6,4-4.66,7.41-7,11.13a63.14,63.14,0,0,0-4.27,7.25c-2.78,6.14-4.9,12.61-8.1,18.51a13.55,13.55,0,0,1-10.82,7c-8.42.81-15.05-5-15.92-14.14-.29-3.1.11-6.28-.21-9.38-.18-1.69-.71-4.07-1.91-4.81-10.49-6.47-10-16.39-8.31-26.43,1-5.75,2.89-11.35,4.65-16.94.81-2.6,1.07-4.93-1-6.85-7-6.4-7.44-14.57-6.25-23.13,1.82-13.14,6-25.34,14.14-36A6.2,6.2,0,0,0,961,580c-11.15-17.49-5.87-33.74,3.68-49.51,3.31-5.46,3.76-5.17,0-10.09a27.92,27.92,0,0,1-5.38-21c1-8.42,3.43-16.27,8.38-23.34a7.4,7.4,0,0,0,.61-6.1c-5.13-12.35-2.22-23.52,4.71-34.06a9.31,9.31,0,0,0,1.53-8c-2.86-11.85.55-22.25,8.25-31.25,2.45-2.86,3.39-5.12,1.69-8.67-2.28-4.76-1.54-6.41,3.47-8.34a114.42,114.42,0,0,1,15.13-5.18c9.16-2.13,15.73,1.07,21.2,8.86,2,2.88,5.11,5,7.48,7.67,2.13,2.39,5,4.8,5.68,7.66,1.67,6.63,2.18,13.54,3.31,20.32.4,2.37.57,5.23,2,6.89,7.9,9.26,8.6,20.08,7.51,31.38-.14,1.54-1.07,3.12-.87,4.57.28,2,.7,4.65,2.08,5.76,9.09,7.33,11.52,17,10.56,28a23.78,23.78,0,0,1-.44,3.49c-.9,3.65.39,5.87,3.85,7.44,6.69,3,9.94,8.9,12,15.65.63,2.09.66,5.46,4,4.7,3-.7,5.78-2.71,6-6.38.19-2.59,0-5.21,0-7.82Z" transform="translate(-0.35 -356.56)" style="fill:#fff"/><path d="M1724.06,435.48c-1.25,4.88-2.37,9.79-3.82,14.61-.75,2.51-1.17,4.63.59,7,10.39,13.82,9.41,32-2.69,44.58-3.2,3.34-7.25,5.93-11.16,8.49-2.45,1.61-4,3.31-3.5,6.33,2.21,14-7.44,25.22-19.26,30.39-6.11,2.67-5.77,2.76-6,9.19a49.68,49.68,0,0,1-2.11,11.79c-.73,2.61-1.09,4.84,1,6.82,8,7.44,8.62,16.9,7,26.78-.52,3.22-.16,5.68,1.87,8.33,5.11,6.7,6.2,14.31,3.55,22.25-1.13,3.37-.5,5.6,2.17,7.88,4.46,3.8,6.61,9,7.53,14.68a8.9,8.9,0,0,1-.34,4.62c-2.38,5.75-4.54,11.67-7.68,17-3.63,6.17-10.17,8.4-16.89,9.45-3.87.6-7,1.36-8.27,5.76-.88,2.93-3.64,3.31-6.85,1.41A22.31,22.31,0,0,1,1649.09,679c-1.55-5.73-3.77-10.58-8.9-14.14-3.31-2.3-4.17-6.32-3.13-10.28a100.5,100.5,0,0,1,3.8-11.5c1.26-3.14.81-5.27-2.43-6.63-6.29-2.62-9-7.49-8-14.08a95,95,0,0,1,3.25-14.45c1.12-3.61.58-5.91-2.81-7.82a53.79,53.79,0,0,1-7.59-5.46c-2.07-1.7-3.86-1.9-5.86,0-1.32,1.26-3.11,2.16-4.07,3.62-1.18,1.81-2.59,4.12-2.4,6.08.87,9.2,0,17.94-4.47,26.23-.86,1.59-.87,3.76-.9,5.67-.17,10.28-3.6,18.91-12.36,24.85-2.59,1.75-3.39,4-3.34,7a34.43,34.43,0,0,1-6.06,20.7,15.18,15.18,0,0,1-10.18,6.66c-2.1.38-4.12,2-5.85,3.46-2.7,2.24-5,5-7.7,7.18-3.5,2.76-7.59,3.6-11.77,1.55a10.56,10.56,0,0,1-6.24-10.9,110.79,110.79,0,0,1,4-18.19c.8-2.77,1.29-5-.94-7.16-3.83-3.61-3.88-8.06-2.83-12.7a34.3,34.3,0,0,1,8.87-16.75c1.87-1.92,3.09-4,1.79-6.67-4-8-1.69-15.54,1.79-22.92,1.16-2.46,3.18-4.56,4.1-7.08.6-1.64.66-4.33-.3-5.55-9.65-12.22-9.91-22.88-.49-35.81,5.25-7.22,5.33-7.28-.63-13.76-5-5.47-5.59-11.91-4.25-18.7a36.2,36.2,0,0,1,8.78-17.24c4.18-4.68,4-5.16-.23-9.56s-5.94-9.41-4.31-15.43a34.25,34.25,0,0,1,10-16.53c2.32-2.14,3.47-4.48.85-7-6.83-6.64-6.13-14.17-2.83-22,2.58-6.16,2.68-6.23-2.48-10.4a16,16,0,0,1-6.18-15.6c1.22-8.59,4.92-15.92,12-21.28,3-2.3,6-3.27,9.54-.42s5.88-.17,7.8-2.59a41.93,41.93,0,0,1,20.31-14.08,56.46,56.46,0,0,1,14.12-2.94c8.16-.45,15,2.84,20.11,9.38,3.07,3.9,4.1,4.06,8,1,7.07-5.53,15.07-7.43,23.89-6.81a24.15,24.15,0,0,1,22.41,20c.53,3.13,1.59,5.55,5.19,5.78,12.66.83,21.39,11.19,22.9,25.27a41.28,41.28,0,0,1,0,4.31Zm-64,37c.19-5.9-1.45-10-4.76-13.22a43.93,43.93,0,0,0-23.66-12.17c-6.22-1-15.46,5.79-16.42,12-1.26,8,.27,15,7.76,19.78,3.68,2.34,3.28,3.82.21,7a45.25,45.25,0,0,0-7,9.66c-1.66,3-2.11,6.58.84,9.42,2.73,2.63,5.49,1.14,8.31-.09,3.24-1.4,5.29-.17,5.87,3.31.15.9-.11,1.91.21,2.72.62,1.61,1.16,4,2.37,4.46a6.21,6.21,0,0,0,5.26-1c2.78-2.3,5.83-4.84,7.38-8,4.56-9.2,8.54-18.7,12.53-28.17C1659.91,476.17,1659.89,473.68,1660.09,472.53Zm1.34,211.53-1.65,1.5a41.72,41.72,0,0,0,3,3c.09.07,1-.83,1.5-1.27Z" transform="translate(-0.35 -356.56)" style="fill:#fff"/><path d="M934.91,455.59a31,31,0,0,1-6.83,20.82,10.15,10.15,0,0,0-2.16,8.71c1.79,10.29,2.68,21-2.19,30.36-4,7.73-4.34,14.43-2.71,22.83,2.93,15.09-1.09,28.93-12.22,40.3a10.76,10.76,0,0,0-2.69,7c.16,13.66-6,23.49-17.53,30.19a7.23,7.23,0,0,0-4,7.38c.36,6.31-1,12.19-4.78,17.38s-8.41,8.54-15,8.46c-2.71,0-4.56,1.19-5.27,3.78-3.17,11.53-16.78,18.12-29.65,12.58-3-1.27-5.17-.79-7.28,1.63-5,5.71-11.4,6-17.93,3.72a12.9,12.9,0,0,0-10.09.36,37.17,37.17,0,0,1-27.54.53c-6-2.25-11.54-5.69-17.9-7.66-3.71-1.14-7-5.8-9-9.65-2.58-4.88-3.5-10.6-5.49-15.83-1.56-4.1-2.81-8.77-5.65-11.85-9.95-10.76-10-22.55-4.47-34.89,3-6.6,7-12.75,10.91-18.91,1.78-2.83,2.47-5.08-.29-7.55-9.68-8.68-10.59-19.51-7.55-31.26a47.26,47.26,0,0,1,10.82-20.6c2.43-2.64,2.78-5.08.31-7.91-6.9-7.9-7.71-17.26-5.66-26.93,1-4.53,3-8.86,4.92-13.13,1.14-2.56,1.7-4.78-.9-6.56-14.52-10-16.76-24.6-15.41-40.58.19-2.21.58-4.42.61-6.63.11-7,3.57-11.81,9.57-15a38,38,0,0,1,21.12-4.75c8.25.66,13.79,5.29,16.08,13.31,1.1,3.83,3,5.55,7.19,5.51a14.16,14.16,0,0,1,12.76,7.12c6.94,11.59,7.73,23.65,2,35.91a9.67,9.67,0,0,0-.35,8.52c5.26,12.86,5.44,25.68-1.25,38.17-1.67,3.11-1.43,5.62.31,8.73,7.39,13.21,7.64,26.63-.15,39.78-1.9,3.2-1.88,5.63-.44,9a112.8,112.8,0,0,1,5.38,17c1.19,4.84,1.9,5.56,6.82,6.47,3.67.69,7.13,2.42,10.78,3.31a25.89,25.89,0,0,0,7.87.82c7-.52,12.34-2.4,13-11.34.39-5,5.45-7.95,10.92-8.57,4.72-.54,4.93-1.45,4.24-6.13-1.07-7.28-2.07-14.67-1.93-22,.06-3,2.65-6.48,5-8.77,2.56-2.48,2.91-4.69,2.45-8a132.64,132.64,0,0,1-1.54-18.22,26.07,26.07,0,0,1,7.75-18.7c1.38-1.41,1.44-4.52,1.36-6.83-.16-5.19-1.43-10.43-1-15.55.32-4.09,2.53-8,3.73-12.07a26.64,26.64,0,0,0,1.5-7.34c0-7.13-.86-14.29-.47-21.39.21-3.74,1.85-7.63,3.71-11,2.41-4.34,6.47-6.38,11.63-5,3,.81,5.15.07,7.19-2.42,6-7.36,13.67-8,21.27-1.92,5,4,8.28,9.23,10.63,15.22a34.78,34.78,0,0,0,5.58,9.19C932.46,433.86,934,444.6,934.91,455.59Z" transform="translate(-0.35 -356.56)" style="fill:#fff"/><path d="M149.27,425c-4.13-1-6.71.82-9.31,4a18.09,18.09,0,0,1-8.05,5.16c-8.21,2.75-16.44,2.69-24.28-1.59-2.11-1.15-4.15-1.64-6.11.25-8.22,7.95-18,7.86-28.19,5.39-1.52-.37-3-1.28-4.5-1.22A9.73,9.73,0,0,0,64,438.61a37.11,37.11,0,0,0-6.72,5.77c-1.3,1.47-2.65,3.64-2.58,5.44.24,5.58,1.15,11.14,1.78,16.71.76,6.76,5.62,11.64,12.36,12.89,2.36.44,4.49,2.08,6.85,2.61,1.8.4,4.55.72,5.6-.27,8-7.61,17.58-7.31,27.26-5.5,4.69.87,9.17,2.94,13.69,4.64,2.53,1,4.67.91,6.11-1.59,5.32-9.21,17.46-11.51,27.74-6.45,3.69,1.82,6.48,1.92,10.05-.51,9.42-6.4,22.18-3.74,30.5,5.86,7.35,8.48,7.58,18.34-.78,24.76a9.57,9.57,0,0,0-2.93,5.33c-1.86,8.71-7.19,14.33-15.14,17.67-5.47,2.29-11.08,3.58-17.18,2.4a7.31,7.31,0,0,0-5.82,1.87c-5.44,6.17-12.52,8.7-20.23,8.87-6.56.15-13.14-1.27-19.73-1.68-2-.13-4.84.12-5.89,1.38-6.77,8.11-15.32,8.74-24.58,6.39-6.34-1.6-8.88-1-12.44,4.51a5.91,5.91,0,0,0-.57,4.38c2.62,8.37,3.83,16.74,1.52,25.43-.51,1.93.14,4.15,0,6.23-.17,3.11-.73,6.2-.8,9.3-.06,2.49-.27,5.29.71,7.44,2.68,5.87,2.86,11.76,1.93,18a19.66,19.66,0,0,0,.47,8.71c2.62,7.94,3.25,15.42-1.54,22.92-1.13,1.77-.79,4.77-.5,7.13,1.27,10.07-.1,19.54-5.88,28.08-5.58,8.25-13.32,9.79-21.56,4.22a6.12,6.12,0,0,0-7.23-.34c-7.08,4.06-14.07,3.44-20.61-1.19s-9.42-11.32-8.35-19.42a54.85,54.85,0,0,1,10.62-25.8c3.48-4.7,3.13-5.92-2-8.66C7,630.15,2.69,620.59,5.46,608.34,7.88,597.57,12.89,588.05,19,579c2.41-3.59,2.22-5.45-1.45-6.84-13-4.94-17.61-16.85-14.31-31.32A99.65,99.65,0,0,1,7.9,526.75c1.07-2.74,1.18-5-.87-7.23-7.83-8.39-7.1-17.8-2.83-27.33,1.66-3.71,1.75-6.38-1.15-9.49C-.74,478.63.51,473.37.7,468.46c.17-4.14.3-8.29.76-12.39.23-2,1.39-3.9,1.75-5.91s.83-4.5.36-6.56c-2.38-10.35-4-20.44,3.29-29.79,1.12-1.43,1.74-4.42,1-5.91C5,402.23,5.21,396.46,6.47,390.68A54.69,54.69,0,0,1,19.32,365.9c2.27-2.58,4.84-4.22,8.45-4.16a16.84,16.84,0,0,0,5-.92,33.75,33.75,0,0,1,27.58,3c4.51,2.58,5,2.35,8.5-1.65,4.12-4.78,9.48-6.26,15.55-5.41,6.56.92,12.05,4.24,17,8.39,2.89,2.42,5.17,2.69,8.23.19,6.23-5.06,13.37-5.13,20.29-1.9a73.41,73.41,0,0,1,12.78,8.2c2.81,2.12,5.13,2.52,7.45-.24,8.25-9.8,32.56-11.47,46-.2a13.7,13.7,0,0,1,5.18,12.49,30.92,30.92,0,0,0,.06,7c.74,6.09-1.77,10.75-6.92,13.33-4.6,2.3-9.81,3.34-14.68,5.13-1.85.68-4.28,1.43-5.15,2.91C168.82,421.9,159.59,424.38,149.27,425Z" transform="translate(-0.35 -356.56)" style="fill:#fff"/><path d="M425.52,518.58c-1.13,4.75-1.68,9.74-3.53,14.19-2.17,5.22-6.4,8.7-12.56,8.22-4-.31-7.31,1-10.59,3.16-8.39,5.5-17.14,8.19-26.92,3.22a9.47,9.47,0,0,0-6.06-.32,53.28,53.28,0,0,1-26.72-.43,20.72,20.72,0,0,0-6.95-.18c-4.27.38-8.5,1.2-12.77,1.48-3.25.21-5,1.51-5.61,4.78-.57,3-1.83,6-2.27,9.06a18.2,18.2,0,0,0,.43,6.89,41.76,41.76,0,0,1-.06,21.66c-1.15,4.21-3.45,7.33-7.85,8.42-3.05.76-4.1,2.65-3.3,5.54,3.08,11.14,4,22.79,9.37,33.43,5.25,10.46,2.63,26.93-6.18,33.57-1.78,1.34-2.69,4.09-3.53,6.37-3.2,8.68-8.52,15.54-16.81,19.82s-15.4,2.92-22-3.77a8.24,8.24,0,0,0-5-2.45c-9.9-.45-16.25-6.64-16.39-16.6a48,48,0,0,1,5.66-22.57c1.12-2.21,2.37-4.35,3.57-6.53a4.83,4.83,0,0,0-.94-6.39,7.27,7.27,0,0,0-.56-.55c-11.22-9.08-11.24-20.48-6.37-32.59,1.73-4.32,4.33-8.32,6.77-12.32s2.46-5.15-1.08-7.91c-6.16-4.78-8.56-10.85-7.22-18.59a50.2,50.2,0,0,1,8.85-21.11c3.59-5,3.45-5.86-1.1-9.63-9.24-7.66-10.84-16.77-4.51-28,2-3.6,4.82-6.81,7.38-10.09,1.56-2,2.12-4,.33-6-9.55-10.84-8.38-23.09-4.21-35.42,1.48-4.37,1.17-7.47-1.68-11.09-7.94-10.08-5.76-25.6,4.52-33.1,2.87-2.09,3.37-4.22,2.07-7.36-3.06-7.35-3.14-14.74.36-22,3.66-7.58,10.18-10.9,18.53-9.92,5.82.69,11.68,1.2,17.54,1.33,1.69,0,3.73-1.15,5.08-2.37,9.93-8.9,18.42-9.73,29.78-2.52,2.65,1.69,5,1.9,7.54,0,8.27-6.09,16.71-6.53,25.51-.91a6.69,6.69,0,0,0,5.42.34c11.51-5,20.63-3.54,29.58,5.28,2.48,2.45,4.25,5.63,6.69,8.12,1.63,1.66,3.77,3.58,5.88,3.85,6.73.87,11.14,4.76,14.8,9.91,4.95,7,6.37,14.8,5.13,23.12-.6,4.06-.81,8.52-2.67,12-4.38,8.15-13.94,11.49-23.77,9.26a14.73,14.73,0,0,1-3.37-1c-3.62-1.82-6.67-1-10.28.74A18.64,18.64,0,0,1,373,442.13c-4.29-.66-8.28-3-12.53-4.22-2.34-.66-5.24-1.23-7.36-.44-5.3,2-10.25,1.85-15.12-.73-3.38-1.8-5.95-1.42-8.69,1.4a66.35,66.35,0,0,0-11.18,16.8,28.25,28.25,0,0,1-4.36,6.37c-2.22,2.75-2.28,9.24.34,11.55a4.29,4.29,0,0,0,3.44.41c1.2-.33,2.2-1.36,3.29-2.08,5-3.26,10-3.69,14.89.1,2.66,2,5,2.06,7.81.08,6-4.31,12.18-4,18.16.28,2.18,1.56,4.32,3,7.18,1.69,9.81-4.48,17.76-.61,24.23,6.41,3.85,4.17,7.39,6.86,13.44,7.07,5.78.2,9.71,4.72,12.76,9.45,4.31,6.71,5.79,14.18,5.25,22.1Z" transform="translate(-0.35 -356.56)" style="fill:#fff"/><path d="M1920,560.68c-1.33,5.13-2.84,10.22-3.92,15.4-.61,2.95-1.2,6.19-.61,9,1.64,8,1.7,15.79-.89,23.56-2.38,7.12-6.2,12.77-13.73,15.52-1.71.63-3.29,3.26-3.8,5.26-4.58,17.72-20.08,30.13-37.55,29.73a6.9,6.9,0,0,1-2.33-.15c-6.22-2.39-9.29.32-12,5.94-3.56,7.33-10.74,10.41-18.38,12-14.62,3.11-28.51,1.92-41.14-7.1-1.54-1.1-4.29-1.31-6.24-.87-5.89,1.34-11.07.11-15.16-4.08-3-3-5.86-6.51-7.53-10.33a51.35,51.35,0,0,1-4.16-28.67,13.79,13.79,0,0,1,5.33-9.22c1.39-1.1,2.15-3.35,2.58-5.22.57-2.51.23-5.23.82-7.73,2.37-10,11.2-15.26,20.6-11.26,7.45,3.16,14.4,5.78,22.64,3.66,2.39-.62,5.38.63,8,1.42a6.24,6.24,0,0,0,6.74-1.57,47.42,47.42,0,0,1,8.77-6.37c3.22-1.75,4-3.79,3.35-7.32-.7-3.92-.4-8-.84-12a17.83,17.83,0,0,0-1.76-5.75c-2.25-4.64-5-9.07-7-13.79-1.61-3.7-2.45-4.13-6.51-2.93a44.3,44.3,0,0,1-11.75,2.24c-7.4.1-12.16-4.56-13.14-11.87-.68-5.06-1.63-5.73-6.67-4.67-16.24,3.41-27.74-7.24-25.14-23.71a75.25,75.25,0,0,1,4.57-15.29c1.19-3.07,1.21-5.42-1-7.9-4.67-5.35-5.66-11.73-4.27-18.39,3.13-15,9.43-28.11,22.75-37,1.86-1.25,2.92-4.52,3.31-7,1.91-12.39,10.55-22.9,21.86-24.09,6.43-.67,9.89-2.88,13.16-8.53,6.58-11.4,21.64-14.46,36.37-8.93a48.74,48.74,0,0,0,12.46,2.75c3,.28,6.19-.62,9.26-1.17,14.28-2.53,26.41,5.91,29,20.13a29.09,29.09,0,0,0,1.79,6c3.08,7.38,1.81,14.29-4.52,19.34a58.93,58.93,0,0,1-12.13,7,14.82,14.82,0,0,0-6.75,6c-2,3.17-4.79,6.47-8,8.1-4.69,2.33-10.11,3.18-15.19,4.71-2.93.89-6.79,1-8.54,3-6.13,6.92-13.95,9.27-22.57,10.31-1.16.14-2.72.09-3.35.8-1.33,1.49-3,3.45-2.93,5.17,0,1.31,2.49,3.61,3.9,3.64,7.87.17,14.8,2.28,21.07,7.23,1.4,1.11,4.45.63,6.6.18,7.06-1.46,14-1.94,20.66,1.36a25.79,25.79,0,0,1,12.5,13c.91,2,2.9,4.31,4.89,5,9.27,3.12,13.3,10.07,13.71,19,.27,5.81,1.7,10.21,5.75,14.62C1918.24,544.7,1919.28,552.58,1920,560.68Z" transform="translate(-0.35 -356.56)" style="fill:#fff"/><path d="M1333.3,474.1a85.38,85.38,0,0,0-1.68,10c-.15,2.56-.11,5.54,1,7.71a50.44,50.44,0,0,1,5.47,33.67,14.25,14.25,0,0,0,1.81,10.74c9,14.91,4.33,38.83-9.6,49.41-3.71,2.82-4.88,5.77-4.12,10.37,2.07,12.64-5.76,26.87-17.59,32.19-3.44,1.54-5.29,3.48-6,7.34-2,11.66-9.18,18.68-20.91,20.8-3.46.63-5.52,2.1-6.86,5.43-3.66,9.08-11.88,11.32-20.36,12.12-4.9.46-7.78,2-10.55,6.3a18.86,18.86,0,0,1-10.47,7.39c-7.92,2-16.18,2.71-24.35,3.33-5.21.39-10.6-4.51-12.15-9.49a10.34,10.34,0,0,0-2.92-4.84c-7.53-6-9.51-14.09-7.54-22.88,1.86-8.34,4.84-16.45,7.59-24.58.85-2.51,1.72-4.83-.45-6.85-5.72-5.31-5.26-11.93-3.9-18.58a69.25,69.25,0,0,1,10.46-24.73c2.86-4.27,2.63-5.35-1.64-8.25-7.79-5.29-8.26-13.14-6.56-21,1.48-6.8,4.24-13.38,7-19.81,1.41-3.27,1.78-5.65-.72-8.49-5.83-6.63-5.69-14.59-3.19-22.2,2-6.11,5.28-11.87,8.62-17.41,1.82-3,2.82-5.49,1.66-9-3.16-9.63-.25-18.61,4.1-27.11,1.88-3.69,2.37-6.8.8-10.69-3-7.39-1.4-14.86.3-22.32,1.15-5,1.8-10.21,2.69-15.31.31-1.79.27-3.78,1.07-5.32,5.12-9.74,12.68-16.83,23.31-20.23,4-1.28,7.2.2,10.17,3.23,1.64,1.67,4.36,3.33,6.52,3.24,8.6-.37,13.67,4.39,17.42,11.1,1.7,3,2.63,6.52,3.75,9.85.79,2.36,2.09,4,4.73,3.82,13-.9,22,6,29.78,15.2a29.85,29.85,0,0,1,7.31,17.41,11.1,11.1,0,0,0,2.91,6.14C1328.91,451.2,1333,461.27,1333.3,474.1Zm-51.12,15.51c-2-7.45-4.3-14.11-10.16-18.74-3.78-3-7.7-5.82-11.65-8.59-4.59-3.21-7.92-2-9.11,3.55-1.64,7.66-.87,15,3.45,21.82,2.9,4.57,2.58,5.56-1.86,8.5-8.31,5.5-9.28,15.05-2.23,21.86,3.91,3.78,4.09,5.42.23,9a29.81,29.81,0,0,0-9.38,18,20.91,20.91,0,0,0,1.17,10.5,15.68,15.68,0,0,1,1,10.55c-1.16,4.54-2,9.16-2.77,13.78a8.64,8.64,0,0,0,3.57,8.57c4.77,3.74,4.48,4.35,1.31,9.57a105,105,0,0,0-7.09,15.05c-.42,1,.45,3.45,1.38,3.9s3.33-.21,4-1.16a28.94,28.94,0,0,0,3.9-7.85c.79-2.53,1.76-4.27,4.31-5.53a16.35,16.35,0,0,0,6.35-5.24c5.31-8.1,7.63-17.32,9.19-26.8.53-3.21,1.3-6.92,3.3-9.25,6.33-7.36,8.14-15.34,4.92-24.34a10,10,0,0,1,1.19-9.91,18.38,18.38,0,0,0,2.37-6.14c1.5-6.24-.18-12.19-2.22-18-1.33-3.76-1-6.76,2.38-9.35C1280.9,492.5,1281.47,490.75,1282.18,489.61Z" transform="translate(-0.35 -356.56)" style="fill:#fff"/><path d="M1424.78,591.69c-.61,6.33-1.3,14.92-2.33,23.45-.45,3.7.56,5.72,4.14,7.24a33.3,33.3,0,0,1,8.56,5.9c2.21,2,4.27,2.92,7,1.54,6.31-3.16,12.43-2.36,18.32,1,3.19,1.85,5.73,1.33,8.52-1,8.85-7.32,18.2-6.51,25.89,2.06a16.85,16.85,0,0,1,2.83,3.73c2.33,4.82,5.31,8.14,11.22,9,2.25.31,4.84,3.64,5.9,6.17,6.9,16.52-2.16,36.05-20.94,38.63a18.29,18.29,0,0,0-9.17,4.43c-10.78,9.77-17.53,10.78-30.45,4.34a8.57,8.57,0,0,0-6.86,0c-10.42,5.77-19.89,5.4-28.64-3.14-2.37-2.31-4.74-1.33-7.11.16-4.78,3-9.59,5.8-15.58,5.62-7.63-.23-12.72-4.9-13.32-12.55-.56-7-.56-7-7.24-8a13.84,13.84,0,0,1-11.74-13.16,47.3,47.3,0,0,1,4.34-21.69c1.53-3.42,1.29-6.1-1.38-8.86-4.25-4.4-4.21-9.91-3.25-15.47,1.66-9.61,4.65-18.77,9.9-27.05,2.93-4.63,3.27-8.51-.74-13-5.89-6.59-6-14.75-3.37-22.59a136.65,136.65,0,0,1,9-20.32c2.13-4.08,2.52-7.28-.37-11.11-8.5-11.26-6.19-23.52-.56-34.48,4.35-8.47,4.15-13.84-2.68-20.58-7.88-7.76-5.77-17.21-1.1-26.11,3.92-7.49,4-7.43-1.91-13.72s-7.62-13.32-4.7-21.33c2.78-7.61,7.66-13,16.29-13.86a6.69,6.69,0,0,0,5.93-4.38c4.33-10,11.88-14.55,22.77-13.29,2.8.32,5.18-.17,6.87-2.64,4.72-6.88,11.52-8.83,19.26-7.4a81.86,81.86,0,0,1,15.37,4.42c5.19,2.07,10,4.68,15.8,5.37,2.75.33,5.44,2.75,7.74,4.71,2.92,2.48,5.24,5.66,8.13,8.19,7.64,6.7,13.19,14.41,13.17,25.1,0,4.41-1.67,7.65-5.74,9.88a13.67,13.67,0,0,0-4.65,5c-4.8,8.09-9.93,10.17-19.06,7.93a14.75,14.75,0,0,0-7.58.1,28.54,28.54,0,0,1-18.06-.05c-5.76-1.89-13.62,3.74-13.91,9.87-.31,6.64-.62,13.28-.78,19.93a24.14,24.14,0,0,0,.7,5.39c.6,2.94,1.8,5.83,1.91,8.76.21,6,2.18,9.31,8.39,12.05,5.87,2.58,10.68,6.34,17.79,6.62,6.2.25,10.2,5.9,13.53,11,2,3,4,5.7,7.66,6.87a6.62,6.62,0,0,1,2.85,2c6.66,8,10.49,16.86,8.05,27.42-.49,2.11-2.12,4.1-3.62,5.79-2.3,2.59-5.27,4.62-7.39,7.32-4.84,6.2-10.56,8.86-18.5,6.76a11.39,11.39,0,0,0-7.4,1,19.57,19.57,0,0,1-17,.94c-3.06-1.23-4.86-.22-7.13,2C1423.72,578.31,1424.3,583.82,1424.78,591.69Z" transform="translate(-0.35 -356.56)" style="fill:#fff"/></svg>