<svg id="Layer_1" data-name="Layer 1" xmlns="http://www.w3.org/2000/svg" viewBox="0 0 1920.02 578.67"><path d="M365.3,526.05c3.88-20.72,1.59-41.12-3.89-61.23-2.51-9.21-5.59-18.26-8.55-27.34-1.35-4.1-.8-7.34,2-10.91a51.66,51.66,0,0,0,11.42-29.09,77.09,77.09,0,0,0-5.38-33.3c-5.18-13.35-10.74-26.48-19.32-38-4.09-5.5-8.7-10.62-13.18-15.81-2.5-2.91-5.09-5.65-5.62-9.74-2.55-19.62-12.56-34.55-28.65-45.79-10-7-19.91-4.47-28.11,4.61-4.87,5.39-7.77,11.9-10.6,18.46-2.43,5.61-3.55,6.26-9.57,5.88-4.82-.31-9.31.84-12.6,4.37s-6.66,7.22-8.72,11.46c-3.84,7.86-6.86,16.14-10,24.33a10.52,10.52,0,0,1-6.73,6.71,21.39,21.39,0,0,0-6.21,3.61,40.93,40.93,0,0,0-10.85,14.14c-1.06,2.18-2.15,4.35-3.4,6.41-1.9,3.13-4,3.88-7,1.91-4.9-3.24-9.6-3.37-14.73-.58-2.89,1.57-5.05.67-6.68-2.26-.81-1.44-1.34-3-2-4.54-1.75-3.95-3.11-8.15-5.34-11.8C145.42,327.43,139.65,317,130.67,309a124.07,124.07,0,0,0-13.06-10.4c-4.94-3.32-10.58-3.31-16.22-1.75-5.27,1.46-6.74.62-9.11-4.5A48.12,48.12,0,0,0,87.15,283c-7.62-9.8-17.72-10.17-25.59-2.22a69.16,69.16,0,0,0-5.41,6.41c-2.54,3.28-4,3.86-7.86,2.77-7.6-2.16-12.29-.63-17.22,5.44s-7.9,13-10,20.43c-.74,2.61-1.84,5.78-3.84,7.25-4.92,3.64-7.06,8.31-8.1,14.09a65,65,0,0,0,3.53,36.72c3.91,9.64,9.64,18.21,15.72,26.58,3.12,4.28,2.42,7.13-2.16,9.14-11.47,5-19.23,13.61-23.79,25.1a30.68,30.68,0,0,0-.72,22c3,8.71,8.85,15,16.5,19.86,2.69,1.7,5.58,3.09,8.21,4.87,3.19,2.15,3.43,4.7.56,7.23a63.18,63.18,0,0,0-14.21,17.8C5.46,520.22.16,534.41,0,550.33c-.16,19.6,14.4,37.4,33.52,40a16.64,16.64,0,0,1,2.61.57c3.43,1.06,4.51,3,3.44,6.38A51.16,51.16,0,0,1,37.34,603a88.28,88.28,0,0,0-8.2,41.94c.7,14.71,12.24,28.36,26.5,30.39,2.39.34,4.81.57,7.18,1,4.08.81,5.06,2.71,3.58,6.6s-3.12,7.8-4.51,11.76c-4.5,12.79-8.1,25.77-7.47,39.28,0,2.68-.08,5.1,0,7.52.35,9.45,3,18.15,9.27,25.35A33.61,33.61,0,0,0,73,774.65a18.68,18.68,0,0,0,20.31-1.18c5.63-3.92,11.39-7,18.27-8.18a15.73,15.73,0,0,0,10.47-7.2c9.54-14.53,11.1-30.62,8.76-47.35-1.32-9.44-4.76-18.19-9.19-26.6-2.09-4-1.71-5.2,1.42-8.46,2.3-2.38,5-4.53,6.75-7.26,10.1-15.33,12.92-32.2,9.66-50.11C137,605,131.38,592.88,124,581.57c-2.76-4.22-2.73-5.35.5-9.09a36.16,36.16,0,0,0,7.55-14.42,52,52,0,0,0,.44-24.92c-2.63-12.71-6.73-24.76-13.72-35.76-1.4-2.21-1.66-5,.34-6.72,2.85-2.51,3.86-5.55,5-9,2-6.19,1.52-12.37.94-18.48-.46-4.79-2.89-9.21-3-14.32-.08-3.28-2.59-6.46-3.73-9.78-.43-1.29-.56-3.16.1-4.17.47-.72,2.56-.84,3.77-.55,3.14.76,5.59,2.61,6.32,6,1,4.59,2.27,9.2,2.66,13.86.93,11.21,2.81,22.19,6.72,32.76,3.29,8.87,8,16.84,15.51,22.79,3.69,2.93,4.53,6.35,4,10.76-.86,7.31-1.54,14.66-2,22s2.39,13.74,6.32,19.68c3.41,5.18,8.83,7.35,14.65,5.21,4.12-1.51,6.85-.45,10,2.08,6.9,5.49,14.8,6.57,22.53,2.31,4-2.2,7.43-5.79,10.41-9.34A60.68,60.68,0,0,0,229.9,543.9c2.41-6.7,5.5-13.18,5.84-20.48.13-2.82,1.79-4.81,3.68-6.88,3.39-3.72,7-7.51,9.34-11.88A104,104,0,0,0,255.94,487c2.35-7.25,4.08-14.71,6.05-22.09,1.07-4,2.18-5.27,5.86-5.36a13.08,13.08,0,0,0,9.72-4.51,5.24,5.24,0,0,1,4.22-1.48c.9.21,1.79,2.37,1.86,3.71a98.63,98.63,0,0,1,0,13c-1.36,17.08-.29,34.1.69,51.14.58,10,1.1,20.13-1.27,30.07-3.07,12.87-6.33,25.71-9.18,38.63-1.7,7.69-3.26,15.39-3.13,23.4.18,11.1,2.59,20.91,12.26,27.74,2.64,1.86,3.36,4.57,2.36,7.81-3.67,12-6.55,24.09-7.46,36.6-.72,9.83.31,19.38,5.36,28.1,3,5.08,7.13,8.18,13.39,7.77,3.25-.21,4.62,1,5.43,4.12.7,2.72,1.23,5.48,2,8.16,2.93,9.83,11.65,14.09,21,10a33.76,33.76,0,0,0,8.71-5.4A76.45,76.45,0,0,0,355,709.29c5.76-14.37,6.18-28.78-2.33-42.5-2-3.26-3-6.3-.65-9.92,10-15.46,13.76-32.77,14.28-50.85a110.15,110.15,0,0,0-10.1-49,8.42,8.42,0,0,1,.54-8.63A66,66,0,0,0,365.3,526.05Z" transform="translate(0 -250.8)" style="fill:#fff"/><path d="M1678.05,601.22a66.43,66.43,0,0,0,3.58-25.21,11.31,11.31,0,0,1,4.87-10.17,41.56,41.56,0,0,0,7.5-7.55c8.84-11.41,14.59-24.26,15.91-38.67.71-7.69.21-15.49.06-23.24-.08-3.62-.06-6.93,2.49-10,10.66-13,16.47-27.69,15-44.81-.4-4.67-1.32-9.21-4.58-12.7a16,16,0,0,1-4.23-10.34,34.55,34.55,0,0,0-.49-4.56c-1.3-6.07-5.6-14.18-13.12-14.57a19.4,19.4,0,0,0-13.84,4.44,26.59,26.59,0,0,0-8.9,14.38c-.92,3.61-3.07,5.77-6.35,7.57a26,26,0,0,0-8.4,6.94c-11.68,16-13.32,34-9.21,52.79.89,4.06.79,7.4-1.62,10.81a40.36,40.36,0,0,0-4.1,7.31c-4.11,9.64-7.56,19.47-7.78,30.14a7.85,7.85,0,0,1-3.84,6.64,28.07,28.07,0,0,0-5.59,5.13c-8.05,9.55-11,21.09-12.45,33.11-.43,3.56-1.58,6.34-4.48,8.42A32.9,32.9,0,0,0,1608,600c-1,2.18-1.91,4.46-3,6.61-.91,1.78-1.8,4-4.36,3.53-2.4-.47-2.8-2.69-3-4.78-.06-.51-.08-1-.09-1.53a29.39,29.39,0,0,0-3.85-14.24c-1.82-3.11-1.62-6.16-.5-9.53,1.51-4.56,3.08-9.24,3.55-14,.57-5.9.16-11.91,0-17.87a31.09,31.09,0,0,0-6.39-18.1,8.64,8.64,0,0,1-1.22-9.29c.64-1.53,1.33-3,1.82-4.62,6.07-19.52,5.42-37.66-10.75-52.66-1.77-1.64-2.94-3.7-1.86-6.16,3.29-7.47,3.42-15.37,3.13-23.28s-1.71-15.46-6-22.24c-2.8-4.38-6.13-8.37-11.43-9.56s-7.17-4.29-8.08-9.25a51.21,51.21,0,0,0-4.27-13.38c-6.16-12.44-18.78-16.73-30.94-10.73-7.67,3.79-10.86,12.16-4.55,18.83a11.18,11.18,0,0,1,2.43,5.05c1.54,6.69,2.78,13.45,4.25,20.15,1.16,5.27.59,6.75-4.48,8.8-9.11,3.69-14.22,10.69-17.14,19.77-1.34,4.17-1.76,8.25,0,12.31,1.95,4.54,4,9,6.22,13.46,1.85,3.76,1.47,5.49-2.09,7.57-1.31.78-2.67,1.49-4,2.22-12.27,6.69-20,17.23-24.48,30.1-1.74,5-2.73,10.41-.52,15.7.93,2.23,2,4.41,3,6.59,2.09,4.31,1.36,6.73-2.74,9.26a61.54,61.54,0,0,0-25.13,29.91c-3.1,7.62-3.42,15.32.57,22.91,2.09,4,1.48,6-2.13,8.92-2.49,2-5.34,3.59-7.56,5.83-8.76,8.85-16.06,18.66-20.54,30.5a40.46,40.46,0,0,0-1.83,21c1,6.31.54,7-4.86,10.39-4.81,3-9.76,6.23-13.6,10.34a73.89,73.89,0,0,0-18.85,38.16c-.84,4.72-.67,9.64-.66,14.47a12.5,12.5,0,0,1-3,8.38,62.6,62.6,0,0,0-12.61,25.86,33.3,33.3,0,0,0,1,19.92c3.24,8.48,12.94,13.36,21.17,10.28,2.75-1,5.2-3.12,7.49-5.07s4.53-3.43,7.55-2.91c9.57,1.62,16.29-3.12,22.41-9.62,7.19-7.65,10.28-17.25,12.66-27,1.11-4.56,3.21-7.5,7.29-9.5a22.94,22.94,0,0,0,10.08-9.63,46.25,46.25,0,0,0,6.15-21.45c.13-5.1.22-10.21,0-15.29-.23-5.37,1.61-9,6.92-10.92,7.39-2.66,11.88-8.38,14-15.63a102.76,102.76,0,0,0,3.64-18.3c.6-5.75,2.87-9.18,8.43-11.29,6.37-2.42,10.16-7.58,12.26-14.2,2.72-8.54,3.07-17.24,3-26.06-.07-5.81,1.42-7.55,7.12-8.41a9.52,9.52,0,0,0,7.39-4.82c1.59-2.86,3.31-5.84,4-9,1.26-5.55,1.79-11.26,2.63-16.9l-.46-.1a84.76,84.76,0,0,1,.07-9.16c.35-3.16,2.86-4.25,5.59-2.79,4.48,2.4,7.88,11.72,6,16.36-2,5-3.84,10-5.82,14.93-3.45,8.59-3.1,16.8,3,24.07,4.14,4.93,4.31,9.77,1.88,15.56a72.38,72.38,0,0,0-4.38,15.37c-.84,4.72-.18,9.44,4.33,12.63s4.93,4.88,2.8,10c-1.65,4-3.72,7.84-5.12,11.92-4.65,13.55-4.14,26.6,4.69,38.52,3,4.08,6.53,7.81,9.5,11.93a52.29,52.29,0,0,1,4.95,8.83c1.84,4,2.94,8.45,5.05,12.33a17.28,17.28,0,0,0,22.44,7.47,17.93,17.93,0,0,0,9.32-10.19c1.42-3.57,4-5.59,7.17-7.51,3.54-2.15,7.18-4.58,9.77-7.72,6.1-7.39,9.44-16.08,8.77-25.81-.39-5.59,1.17-10,5.63-13.33a19.16,19.16,0,0,0,2.16-2.16,45.44,45.44,0,0,0,12.66-28c.65-7.54,2.71-12.5,9.9-16.72C1664.72,628.29,1673,615.62,1678.05,601.22Z" transform="translate(0 -250.8)" style="fill:#fff"/><path d="M791.75,345.21c-2.88-1.88-5-4.23-4.48-7.8,1.13-8.5-1.14-16.17-5.38-23.37-6.94-11.76-21.78-22.71-37.29-14.61-3.44,1.8-5,1-7.61-2.12-1.38-1.67-2.58-3.51-4-5.08-9.75-10.34-21.13-16.06-35.57-11.49a59.27,59.27,0,0,0-13,6.2c-4,2.46-7.87,3.39-12.33,2-1-.31-2-.48-3-.74a18.1,18.1,0,0,0-15.66,2.93,60.87,60.87,0,0,0-19.64,23.48c-3.14,6.68-5.83,13.57-9,20.22-2.87,6-6.32,11.63-9.23,17.56-4.72,9.59-8,19.5-6.84,30.52.3,2.87-.62,6.07-1.65,8.87-4.13,11.2-7.23,22.59-6.47,34.65.27,4.33-.67,8.24-1.84,12.33-2,7-3.41,14.06-4.89,21.15a12.74,12.74,0,0,0,.37,4.52c.94,5.55,4,9.7,8.12,13.45a14,14,0,0,1,4,6.59c1.82,7.63,3.56,15.15,10,20.53a11.26,11.26,0,0,1,2.35,3.46c3.3,6.19,8.83,9.31,15.28,11.17,1.59.46,3.17,1,4.78,1.32,3.76.77,6,3.06,7.21,6.61a18,18,0,0,0,6.6,9.15c3,2.13,4.28,5,4,8.9-.43,5.24.93,10.28,4.78,14,3.66,3.55,4.29,7,2,11.6-3.18,6.53-3.45,12.93,2.45,18.54a6,6,0,0,1,1.57,7c-2.56,6.08-5,12.21-7.58,18.29-1.15,2.73-3.36,3.11-5.35.94a8.05,8.05,0,0,1-1.48-2.22c-3.09-7-6.55-13.85-9.09-21a38.27,38.27,0,0,0-13.47-18.08,19.32,19.32,0,0,1-6.93-9.71,33.28,33.28,0,0,0-4-8.2c-4.3-6.24-13.94-10.44-20.61-3.1-1.31,1.44-4.12,1.53-6.25,2.23-2.37.78-5.24.94-7,2.42-6.78,5.65-9.3,13.39-8.21,21.9a27.59,27.59,0,0,1-1.12,13.45c-1.55,4.24-2.75,8.95-.54,13,3.49,6.48,3.18,12.86,1.39,19.55a20.64,20.64,0,0,0-.39,3.79c-.5,6.31,1.42,11.65,6.69,15.35,3.81,2.68,4.53,6,4.37,10.54-.48,13.64,7.92,24.61,21.77,23.68,5.14-.34,8.31,1.39,10.64,6,5.34,10.63,16.15,11.45,24.85,7.16,3.31-1.63,6-1.8,9.27.2a13.22,13.22,0,0,0,16.57-1.75,42.19,42.19,0,0,0,6.42-8c2-3.23,4.33-5.77,8-7.26a24.81,24.81,0,0,0,7-4.56c6.41-5.71,9.48-13.24,10.3-21.57.44-4.36,2.16-7.39,5.76-9.69a21.86,21.86,0,0,0,9.37-12.18c1.28-4.12,2.54-8.27,3.55-12.47.72-3,1.65-5.68,4.51-7.17,6-3.15,8.9-8.51,10.64-14.72a40.91,40.91,0,0,1,6-12.66,36.88,36.88,0,0,0,4.93-10.62c1.6-5.46,2.2-11.24,6.4-15.64a8.71,8.71,0,0,0,1.35-2.73c4.46-10.78,4.19-21.77.27-32.46-2.51-6.84-7.08-12.55-14.84-14.19a20.15,20.15,0,0,1-9.63-4.9c-4.9-4.33-10.71-7.34-17.47-5.8-5.09,1.16-8.15-.57-11-4.55a25.94,25.94,0,0,0-6.86-6.43,14.46,14.46,0,0,1-5.58-6c-4.3-9.08-9.72-11.9-19.63-10.94a21.48,21.48,0,0,1-7.83-.88,6.42,6.42,0,0,1-4.52-5.67c-.32-2.73,1.59-4.18,3.66-5.3,11.66-6.28,19.43-20.61,15.66-34.64a13,13,0,0,1,.95-8.79A29.6,29.6,0,0,0,681,389a6.73,6.73,0,0,1,2-7.24c4.72-4.44,7.89-9.58,7.72-16.39,0-2.06.66-4.28,3.13-4.65s3.83,1.37,4.6,3.32c2.31,5.89,7.22,8.66,12.59,10.94,1.65.69,3.56,1,4.93,2,1.63,1.24,3.64,2.89,4,4.68,1,4.68,1.94,9.58,1.64,14.31-.74,11.53,3.46,20.36,12.89,26.78,6.2,4.21,6.38,4.53,3.87,11.45-.52,1.44-1.18,2.83-1.59,4.3-1.13,4-2.16,8.05-3.23,12.08l.56.16c.06,1.15,0,2.3.2,3.44.91,6.95,9,13.62,15.05,12.4A56.72,56.72,0,0,0,770,457.74a32.12,32.12,0,0,1,8.24-3.73c4.09-1.28,7.88-2.88,10.72-6.24,9.27-11,11.89-23.71,8.08-37.23-1.7-6,.15-9.42,4.13-12.93a19,19,0,0,0,4.18-4.36c5.11-8.89,5.87-18.2,2.64-28C805.1,356.47,799.3,350.15,791.75,345.21Z" transform="translate(0 -250.8)" style="fill:#fff"/><path d="M1369.42,586.47c-.29-6.19,0-7.13,5.61-9.75,5-2.35,9.48-5.32,12.84-9.93A57.83,57.83,0,0,0,1399.43,533c.1-5.09.1-10.2-.06-15.29-.12-4,1.4-6.63,5.11-8.5a18,18,0,0,0,6.58-5.52,34.1,34.1,0,0,0,5.34-10.85c2.75-11.49,2-23-1.32-34.34-1-3.42-2.21-6.78-3.35-10.16-1.39-4.1-.84-7.65,2.37-10.86a21.08,21.08,0,0,0,3.76-5.66c3-6.1,2.71-12.74,2.07-19.16-1.1-11.11-5.94-20.65-13.71-28.72-3.25-3.39-7.32-6.45-9.29-10.5-6-12.31-15.76-19.55-28.28-24.05-9.39-3.38-18.19-2.76-26.83,2.18-1.49.85-3.49,1.73-5,1.42-6.33-1.3-12.78-2.49-18.75-4.81-6.43-2.5-12.12-2.14-17.33,2.45s-8.46,10.57-10.7,17c-3.49,10-3.2,9.31-13.7,8.72-4.22.76-8.75.82-12.61,2.45-7.2,3-13.67,7.54-18,14.26-4.74,7.3-8.3,15-5.9,24.11.68,2.56,1.77,5,2.7,7.52,1.25,3.35.58,4.95-2.75,6.27a35.22,35.22,0,0,1-4.35,1.45A39.13,39.13,0,0,0,1217,443.57,68.25,68.25,0,0,0,1200.76,470a35.55,35.55,0,0,0-.54,20.33c1,3.9.52,5.4-2.83,7.76a73.25,73.25,0,0,0-7.92,5.93c-11,10.26-18,22.91-22.31,37.23-4.08,13.55-1.19,24.08,9.54,33.18,3.38,2.87,4,5.45,1.3,8.95-6.43,8.49-10.35,18.09-13,28.28-3.93,15.16,2.31,28.71,15.44,34.92a64.56,64.56,0,0,0,9.75,3.17c4.31,1.25,5.66,3,5.39,7.44-.08,1.27-.23,2.55-.21,3.82.17,9.08,5.2,16.55,13.54,18.66,4.08,1,8.6.74,12.88.47,5.87-.36,6.42-.33,8,5.52,1.19,4.47,3.19,8.37,7,11.08a23,23,0,0,0,18.55,3.82,45.43,45.43,0,0,0,19.65-8.94c2.73-2.17,5.46-2.95,8.8-1.25a15.41,15.41,0,0,0,13.37.12c9.91-4.2,18.4-10.17,24.28-19.57a57.27,57.27,0,0,0,8-20.51c.67-3.71,2.76-6,6.46-6.58,18-2.66,32.76-23.34,33.64-39.06A178.11,178.11,0,0,0,1369.42,586.47Zm-20.37-96.89c-3,4.3-5.68,8.67-6.92,13.92-.37,1.58-2.46,3.34-4.14,3.95-8.57,3.07-12.92,9.47-14.93,17.87-.65,2.72-1.12,5.5-1.52,8.27a7.09,7.09,0,0,1-4.07,5.59c-10,5.29-14.29,14-14.62,25-.1,3.14-1.61,4.87-4.27,6.12-2.86,1.34-6,2.46-8.35,4.44-5.59,4.68-7.41,11.36-8.36,18.29-.16,1.13-.06,2.3-.12,3.44-.14,2.67-1.46,4.29-4.2,4.53-6,.51-11.46,2.12-15.93,6.47a6,6,0,0,1-3.82,1.37c-3.56.06-11.36-5.67-12.3-9.13-1.47-5.44-3.17-10.69-6.55-15.34-1.69-2.31-1.49-5.14-.35-7.7,2.81-6.33,4.05-12.82,2.7-19.73-.58-2.95.94-5.1,3.25-6.85a41.79,41.79,0,0,0,5.52-4.65,22.5,22.5,0,0,0,6.4-17.79c-.35-4.31,1.33-7.58,4.78-10.2a15.16,15.16,0,0,0,5.86-10.39c.61-4.58,3-7.58,7-9.77a34.5,34.5,0,0,0,7.57-5.72c4.34-4.29,7-9.42,6.34-15.82q-.45-4.38-.88-8.74c-.29-3,.23-5.58,2.89-7.4,5.77-3.94,6.52-10,6.66-16.22a13.15,13.15,0,0,0-.19-1.52c-.71-6.57.75-8,7.4-7.17a14.22,14.22,0,0,0,10.44-2.66c7.8-5.52,17.53-1.81,19.75,7.57,1.1,4.68,3.93,7.87,7.75,10.45,4.44,3,5,4.41,3.31,9.6-2.5,7.79-2.14,15,3.53,21.48A6.4,6.4,0,0,1,1349.05,489.58Z" transform="translate(0 -250.8)" style="fill:#fff"/><path d="M1027.93,382.29c2.35-9,.69-17.47-4.08-25.2a22,22,0,0,1-3.77-11,18.74,18.74,0,0,0-6-13.21c-5.56-5.37-12.45-7.36-19.66-8.46-3.83-.59-6.72-1.82-8.67-5.3a12.85,12.85,0,0,0-8-6.14c-2.33-.67-4.63-1.43-7-2-10-2.53-19.2-1.53-26.83,6.3-2.3,2.36-5,3-8.37,2a40,40,0,0,0-10.51-1.76c-10.08-.24-18.67,3-23.65,12.4-2,3.72-4.63,5.3-8.66,5.75-13.32,1.47-23.34,12-25,25.42-.35,2.85-1.52,6.2-3.48,8.16-8.66,8.69-12.75,19.49-15.51,31-1.57,6.53-2.53,13.12-5.17,19.48-4.74,11.46-4.91,23.08,2,34.09a15.33,15.33,0,0,1,2,4.11,14.82,14.82,0,0,1,.34,4.79c-.37,4.67-1.09,9.32-1.35,14a16.43,16.43,0,0,0,7.54,14.7c4.6,3.16,7,6.4,5.45,12a7.06,7.06,0,0,0,0,1.53c-.23,5.92,2.52,9.95,7.86,12.31a37,37,0,0,0,4.9,2.13c4.68,1.3,6.44,4.33,6.4,9.07,0,6.42,3.15,10.79,9.22,13,4,1.42,8.07,2.36,12,3.87a15.69,15.69,0,0,1,5.23,3.49,77.56,77.56,0,0,1,6.16,7.25q4.49,5.69,8.79,11.51a7.11,7.11,0,0,1,.87,7.54c-1.67,3.94-1.36,8.17,1.49,11.18,4.47,4.72,6.06,10.5,8.41,16.25,2.82,6.87-.31,11.83-2.87,17.15-1.38,2.86-3.46,2.9-6.5,1.41-1.46-.71-3.07-1.63-4.59-1.59-5,.1-8.19-2.54-10.68-6.31-6.31-9.55-12.44-19.23-18.75-28.79a23.52,23.52,0,0,0-4.29-4.79c-5.45-4.73-11.25-9.09-16.48-14.05-3.58-3.38-7.36-5.38-12.26-5.08a16.36,16.36,0,0,1-9-2.46,19.29,19.29,0,0,0-6.8-2c-8.32-1-16,10.54-16.45,17.28-.32,4.94-1.23,9.83-1.78,14.75-.27,2.52-.81,5.16-.36,7.59a22.34,22.34,0,0,1-2.33,14.74c-3.72,7.39-2.37,14.37,2.77,20.65a10.56,10.56,0,0,1,2.31,9.86c-2,9.19.19,15.57,10.18,21.08,3.22,1.77,5.22,3.67,5.49,7.46.69,10,8.45,18.1,19.13,18a7.3,7.3,0,0,1,6.92,4c3.81,7.27,10.24,10,17.93,10.33a12.52,12.52,0,0,1,9.08,4.25c2.67,3,6.08,4.45,9.81,5.6,8.61,2.67,17.14,1.3,25.71-.15a34.18,34.18,0,0,1,7.56-.86A46,46,0,0,0,953,708.29c9.65-3.49,17.71-8.75,21.89-18.8,1.05-2.55,3.57-4.51,5.48-6.69,2.85-3.22,6.07-6.16,8.55-9.63,5.52-7.72,5.09-16.65,4-25.43-.55-4.34.8-7.12,4-10,7.28-6.53,10.79-14.57,8.46-24.59-1.32-5.66-3.28-10.87-7.29-15.31-3.08-3.4-2.85-5-.51-8.93a29.84,29.84,0,0,0,3.24-6.43c3.22-10.66-1.49-21.36-11.58-26.81-5.17-2.79-6.38-4.52-5.48-9.6s-.73-9.07-4-12.57a35.42,35.42,0,0,0-6.07-5.21,10,10,0,0,1-4.85-9.28,29.8,29.8,0,0,0-6.06-18.17,13.7,13.7,0,0,0-4.43-4.08,19.84,19.84,0,0,1-8-7.95,17.15,17.15,0,0,0-8-7.35,15.16,15.16,0,0,1-4.9-3.53c-5.16-5.72-11.3-9.28-19.08-10.18-5.07-.58-5.92-3-2.83-7.3,2.38-3.26,4.32-6.74,4.38-10.81,0-4.44-.43-8.88-.59-13.32a61.17,61.17,0,0,1,0-7.54c.36-3.91,1.26-7.79,1.43-11.7.19-4.1,1.48-7.53,4.76-10a13.39,13.39,0,0,0,5.45-8.42c.5-2.49,2-4.13,4.77-4.12s5,1.19,5.92,3.95a19.78,19.78,0,0,1,.63,4.51c1,11.37,4.26,21.66,13.14,29.61a41.91,41.91,0,0,1,6.2,7.66c5.43,7.92,12.66,12,21.17,11.06,10.46-.34,17.8-3.39,24-11.9a19,19,0,0,1,5.83-4.79c14.78-8.56,19.46-25.52,15.5-40.4A22.81,22.81,0,0,1,1027.93,382.29Z" transform="translate(0 -250.8)" style="fill:#fff"/><path d="M1919.9,763.12a49.86,49.86,0,0,0-6.08-19.55,10.35,10.35,0,0,1-.48-9.1,48.3,48.3,0,0,0,2.94-12.13c.88-10.11-2.55-19-8.64-27-9.73-12.76-22.45-20.2-38.63-20.73-4.8-.16-8.13-1.44-9.89-6a23.38,23.38,0,0,0-1.28-2.35,35.89,35.89,0,0,0-19.26-16.63c-6-2.27-12.16-2.27-17.74,2.12a18.26,18.26,0,0,1-7.15,3.37c-4.46,1-9.1,1.08-13.58,2s-7.54-.61-9.65-4.72c-2.56-5-7-7.66-12.46-7.33a30.75,30.75,0,0,0-11.64,3.18,36.81,36.81,0,0,0-16.69,17.28,90,90,0,0,0-4.88,13.55c-1,3.23-2.44,5.63-6,6a42,42,0,0,0-18,6.84c-14.14,9.08-24.42,21-28.18,37.77-.76,3.37-2.55,5.64-5.81,6.37-10.12,2.28-16.78,9.2-21.77,17.44a86.64,86.64,0,0,0-9.7,21.88c-3.93,14.6.17,24.89,14.52,30.45,5.22,2,10.72,1.89,16.23,1.28,7.63-.86,14.31-4.38,21.23-7.28,5.91-2.48,7.48-1.7,8.84,4.46a16.5,16.5,0,0,0,10.65,12.5c10,4,20.18,3.18,30.42,1,11.8-2.51,22.77-7.27,33.7-12.18,5.65-2.54,8.15-1.06,8.57,5,0,.64.07,1.27.11,1.91.62,8.75,11.62,19,21.92,16.54,7.86-1.91,15.06-5.08,20.26-11.42,4.83-5.88,9.26-12.1,13.61-18.34,3.06-4.38,4.4-5,9.52-3.93,6.2,1.31,12.46,2.38,18.69,3.56l.09-.82c8.46.91,16.06-1.64,22.71-6.44C1916,784.76,1920.85,775.31,1919.9,763.12Z" transform="translate(0 -250.8)" style="fill:#fff"/><path d="M544.37,355.61c-.22-10.59-3.11-20.72-6.47-30.54-4.82-14.09-14.32-24.78-27.22-32.33-5.68-3.33-11.62-5.7-18.45-5.25-7.67.5-12.91,4.64-13.09,12.22-.2,8.46-3.71,16.05-5.05,24.17-.27,1.6-1.17,3.09-1.66,4.67-1.58,5.1-3.51,10.14-4.54,15.35a32.93,32.93,0,0,0,1.52,18c2.63,7.14,7.51,12.28,13.22,16.86,3.2,2.57,3.43,4.42.48,7.1-2.54,2.31-5.11,4.59-7.67,6.89A49,49,0,0,0,460.2,419.1a14.5,14.5,0,0,0,.1,4.91c1.12,9,6.51,15.22,13.61,20.28,3.71,2.66,3.89,4.79.82,8.17s-6.7,6.69-9.5,10.45c-11,14.76-19.14,30.62-18.63,49.78.13,5,1.36,9.34,4.38,13.12,2.69,3.37,5.71,6.49,8.61,9.69,2.59,2.84,2.8,4.57.77,7.84-.61,1-1.42,1.81-2,2.79-4.07,6.59-8.38,13-12.1,19.85-5.79,10.6-9.14,22.15-11.16,34-2,11.57-.36,22.65,7.13,32.2,3.08,3.93,4.37,8,2.5,12.77-.51,1.3-.88,2.66-1.29,4-2.88,9.4-5.3,18.89-5.15,28.83,0,1.53,0,3.06,0,4.59-.12,8.69,4.87,14.41,11.73,18.35,7.73,4.44,18.64,2.25,25.14-3.88a19.44,19.44,0,0,0,6.05-11.62,15.26,15.26,0,0,1,4.66-8.51c5.33-5.5,10.33-11.35,13.23-18.57q3.84-9.54,7.06-19.34a66.89,66.89,0,0,0,2-33.93,86.38,86.38,0,0,1-1.09-9.09,6.24,6.24,0,0,1,2.87-5.84,31.44,31.44,0,0,0,10.33-13.48c3.22-7.88,4.94-16.31,4.08-24.68-1.11-10.71-3.42-21.32-5.58-31.89-1-4.86-.64-6.5,3.56-9.25,2.21-1.44,4.79-2.85,6.14-5,5.06-7.86,7.27-16.65,5.64-25.93-2.06-11.77-4.63-23.46-7.12-35.15-1.26-5.88-.77-7.47,4.75-9.89,3.86-1.69,6.78-4.3,8.12-8.15s3-8.12,2.84-12.13a78.18,78.18,0,0,0-3.08-18.7c-1.88-6.43-2.24-12.37.68-18.53C543.54,370.39,544.52,363.08,544.37,355.61Z" transform="translate(0 -250.8)" style="fill:#fff"/><path d="M1155.28,409.33c1.74-9.94.25-19.25-3.35-28.43a11.55,11.55,0,0,1,.22-8.9,75.44,75.44,0,0,0,2.34-8.74c-.55-12.49-8.86-20.39-20.56-19a17.45,17.45,0,0,0-12.44,6.7c-2.64,3.47-5.44,6.58-9.77,8.21-2.83,1.07-4.42,3.73-5.17,6.74-2.32,9.25-2.33,18.39,1.19,27.39,1.47,3.73,1.31,5.36-2,7.56-6.46,4.29-10.39,10.53-13.42,17.26A29.07,29.07,0,0,0,1090,436.3c1,5,4,8.72,7,12.54,2.74,3.47,2.48,6.54-.91,8.89a46.58,46.58,0,0,0-17.42,23.09c-3.48,9.53-4.09,18.87,1.66,27.86,1.23,1.93,2.3,4,3.44,6,2,3.46,1.54,5.78-1.61,8.32-1.79,1.43-3.65,2.78-5.33,4.33a65.57,65.57,0,0,0-15,21.43c-5.19,11.37-6.46,22.95-.82,34.64,1.62,3.36,1,6.33-1.44,9.14C1052,601,1047,611,1043.44,621.77c-3,9.05-2.72,17.76,2.93,25.91,2.68,3.87,2.43,6-.1,9.8a131.6,131.6,0,0,0-6.91,11.35c-4.4,8.48-7,17.47-6.87,27.13,0,4.22,1,8.28,4.22,11.13a14.41,14.41,0,0,1,5.07,12.12,7.44,7.44,0,0,0,8.14,7.71c3.07-.24,6.53-.94,9-2.65a60,60,0,0,0,12.46-11.08c6.09-7.64,10-16.24,6.65-26.48-1-3.08.29-5.49,2.71-7.36A58.56,58.56,0,0,0,1095,663.59c6.36-10.35,9.7-21.33,6.47-33.47-1.25-4.68-.31-8,3.79-10.85a27.24,27.24,0,0,0,11-16.09,53.76,53.76,0,0,0,.47-24.59c-.4-1.87-.65-3.77-.91-5.66-.55-4.17,1.1-6.8,5-8.84,5.64-3,9.7-7.83,10.08-14.4a89.47,89.47,0,0,0-1-16.32c-.92-7-2.48-14-3.46-21.07-.85-6.15.19-8.41,5.92-10.83,7.64-3.24,10.32-9.29,10.11-16.77a82.23,82.23,0,0,0-2.34-16.18c-1.43-6.16.19-10.66,4.87-14.94,9.27-8.48,12.34-19.55,11.57-31.81C1156.21,417.6,1154.59,413.28,1155.28,409.33Z" transform="translate(0 -250.8)" style="fill:#fff"/></svg>