<svg id="Layer_1" data-name="Layer 1" xmlns="http://www.w3.org/2000/svg" viewBox="0 0 1919.55 613"><path d="M57.33,760c.9-10.49,4.73-24.81,11.93-38.17,2.85-5.31,2.77-6.25-1.63-10.09C57.08,702.53,52.1,691.44,53.22,677c1-12.59,3.64-24.35,9.64-35.42,2.2-4.05,1.66-5.47-2.59-7.59-8.07-4-15.39-8.9-20.74-16.36a32.26,32.26,0,0,1-6.11-18.31A77.51,77.51,0,0,1,41.62,561c2-4,1.44-5.15-2.92-7-15.32-6.34-26.52-16.7-31.33-32.9-3.07-10.36-2.12-20.86,1.08-31A117.15,117.15,0,0,1,15,474.83c1.41-2.94,1.09-5.05-1.43-7.15C.76,457-2.34,443.48,1.6,427.63c2.46-9.85,6.69-18.54,13.93-25.71,2.55-2.52,2.62-5.22.87-8.39C6,374.64,4.08,355,11.52,334.6c1.78-4.88,4.68-9.06,9.25-11.69A12.74,12.74,0,0,1,27,321.07c3.72.09,5.3-1.63,6.27-4.91,7-23.85,21-42,43.68-52.8,14-6.66,28.05-5.8,41.61,1.75,9,5,9,5.08,16-2.23,17.32-17.95,38.47-24.14,62.59-19.48,12.95,2.5,23,10.34,31.2,20.64a58.59,58.59,0,0,1,10.78,21.36c1.55,5.75,2.47,6.63,8.25,6.28,16.17-1,28.14,6.54,38.37,18.11a77.83,77.83,0,0,1,18.5,36.62c3.75,18.46-.42,35.27-11,50.65-.14.2-.32.38-.46.58-6.89,9.42-6,7.79-1.2,17.36,10.63,21.33,14.09,43.44.14,64.89-6.84,10.51-16.79,17.63-29,21.41-5.73,1.78-6.24,2.77-5.59,8.55.84,7.42.08,14.51-3.55,21.21-2,3.74-1.14,5.6,3,6.31,20.71,3.54,34,24.12,33.53,43.94-.16,7,.7,8,7.8,7.81,12.23-.32,23.28,2.9,32.57,11,4.52,3.93,8.11,8.72,9.16,14.87.66,3.88,2.86,5.57,6.68,5.33a52.76,52.76,0,0,1,22.21,3.36c10,3.76,17.37,10.38,20.58,20.83a21.44,21.44,0,0,1,.64,8.41c-.41,3.82.89,6.27,4,8.43,8.81,6.18,14,14.56,12.51,25.53a35.42,35.42,0,0,1-5.59,14.22c-7.12,10.69-17.94,16.62-29.7,21.14s-23.84,7.23-36.6,4.29c-2-.46-4.41.12-6.54.6-18.55,4.18-36.44,2.74-53-7-11-6.42-16.41-16.75-18-29.23-.78-6.3-2-7.27-8.1-6.34a35.94,35.94,0,0,1-41.5-33.84c-.24-5.25-2.07-8.16-7-9.91-8.22-2.94-14.84-8.22-20.3-15-1.47-1.84-3.23-4.07-5.83-2.23s-2.11,4.48-.91,7c3.33,7.16,7.18,14.13,9.84,21.53,4,11.2,5.56,22.8,2.13,34.57-1,3.49.26,6.24,2.37,8.88,5.57,6.95,9.95,14.62,11.5,23.41,4.26,24.23.91,46.76-18.84,63.48-6.51,5.52-10.39,10.86-12,19.13-2,9.89-5.28,19.57-11,28.18-8.35,12.66-19.74,19.18-35,15.71-14.66-3.34-23.67-13.11-27.6-27.55-.65-2.38-.53-5.06-1.58-7.21-.9-1.87-2.76-4.29-4.53-4.59C66.72,802.39,56.88,784,57.33,760Z" transform="translate(0 -233.44)" style="fill:#fff"/><path d="M1387.92,503.44a52.63,52.63,0,0,1-6.33,21.13c-2,3.64-1.89,7-.65,11,5.82,18.52,7,37-.8,55.44a8.48,8.48,0,0,0,.41,6.86c10.89,16.64,12.67,34.74,9,53.72a27.88,27.88,0,0,0,.8,14.48c5.5,17.16,6.25,34.34-.64,51.52-1.54,3.85-1.66,8.41-1.76,12.67-.19,7.6-.65,15-4.47,21.88a24.68,24.68,0,0,1-26.1,12.83,11.31,11.31,0,0,0-7,1.33c-10.36,6.24-22.11,4.42-29-5.8a70.09,70.09,0,0,1-8.51-18.34c-3.61-11.86-4.47-24-.62-36.14,1.06-3.36,1-7.07,1.41-10.63.49-4.49-1.3-8.07-3.47-12.05a69.69,69.69,0,0,1-7.21-19.66c-2.17-11.25-3.2-22.73-4.45-34.15-.37-3.4.28-6.9.23-10.35,0-1.08-.82-2.14-1.27-3.21-1,.46-2.21.68-2.81,1.43a37.35,37.35,0,0,1-12.84,10.37c-1.56.76-2.57,3.21-3.25,5.1-2.66,7.32-5.06,14.75-9.94,21-6.15,7.87-13.53,13.34-24.26,12.31-6.46-.61-11.64-3.42-14.94-9a13.31,13.31,0,0,0-9.22-6.67c-7.13-1.6-11.34-6.67-13.93-13.19a32.33,32.33,0,0,1-2-17.84c.79-4.43-.65-7.46-4.25-10.17-8.2-6.18-12.22-14.68-12.5-24.92-.1-3.7.06-7.42-.07-11.12-.08-2.5-.92-4.75-3.78-5.19s-4.24,1.45-5.17,3.81c-3.5,8.85-8.69,16.32-17.16,21.16-3.09,1.77-3.66,4.82-3.51,8a80.66,80.66,0,0,1-4.56,30.6c-4.29,12.35-11,22.66-23.37,28.25-3.19,1.44-4.3,4.27-4.89,7.4-1.65,8.66-4,17.06-8.79,24.62a35.52,35.52,0,0,1-13.15,12.73,9.69,9.69,0,0,0-5.56,8.12A54.42,54.42,0,0,1,1086,740.84c-5.23,6.62-11.79,11.73-20.37,13.27-5.49,1-8.82,3.43-10.69,9.11a58.57,58.57,0,0,1-16.36,25.67c-10.26,9.23-23.21,11.44-33.29,4.19a40.84,40.84,0,0,0-17.82-7.55c-13.78-2.35-21.75-14.67-20.7-28.62,1.35-18,9.85-32.33,21.54-45.25,2.65-2.93,5.83-5.41,8.29-8.48C998,701.51,999.18,699,999,697c-1.29-11.43,2.57-21.49,7.83-31.12,8.65-15.84,21.1-28.19,36-38.14,2.42-1.61,4.09-3.54,3.63-6.71-2.49-17.1,3.27-31.86,12.91-45.52a88.22,88.22,0,0,1,24.36-23c4-2.57,4.61-4.66,2.45-8.65-8.43-15.57-4.26-29.84,6-41.75,3.94-4.59,9.31-8,14.3-11.61,4-2.86,5-4.56,3.06-8.92-7-16.21-4.46-31.46,4-46.43,6.59-11.73,16.44-20.61,25.39-30.29a7.08,7.08,0,0,1,3.77-2.14c5.2-.79,10.43-1.56,15.67-1.83,11.89-.6,20.66,5.06,25.93,15.23,3.25,6.26,5,13.34,6.93,20.2.9,3.22,2.32,5.27,5.42,6.36,19.63,6.9,31.25,21.49,37.48,40.56,1.66,5,1,11,.76,16.48a11.91,11.91,0,0,0,3.18,9.06c3,3.4,5.76,7.07,8.46,10.75s4.48,4.23,8.82,2.37a95.46,95.46,0,0,1,9-3.3c2.94-.92,4.09-2.69,3.94-5.79-.62-12.88-.11-25.66,3.64-38.13a30.15,30.15,0,0,1,9-14.62,21.56,21.56,0,0,1,16.36-5.62c4.91.4,5.74-.5,7.41-5.22,1.5-4.26,2.87-8.87,5.56-12.36,10.12-13.07,30.72-9.68,38.06,5.55a45.24,45.24,0,0,1,3.06,8.71c.78,3.21,2.46,5.32,5.61,6.25,13.92,4.08,21.46,14.49,26.17,27.23C1385.37,490.59,1386.36,497.12,1387.92,503.44Z" transform="translate(0 -233.44)" style="fill:#fff"/><path d="M1916.64,343.84c.42,9.32-1.24,17.55-6.35,24.86-2.15,3.08-1.57,5.8.42,8.85,12.58,19.31,11.7,42.86-2.46,60.89a46.89,46.89,0,0,1-9.84,8.89c-3.54,2.51-5.17,5.44-4.7,9.69,1.45,13-2.75,24.06-11.45,33.62a48.46,48.46,0,0,1-27.36,15.23c-4.8.92-7.35,3.1-9,7.88-3.09,9.12-9.79,15.39-18.64,19-6.76,2.76-13.76,4.62-21.3,4a9.25,9.25,0,0,0-6.52,2.58c-4.92,5.1-10.91,8-17.47,10.06-5,1.57-5.56,2.85-4.25,7.9a31.81,31.81,0,0,1-1.88,21,12.73,12.73,0,0,0-.46,10c5.17,14.15,4.07,28.46.54,42.69a78.2,78.2,0,0,1-5.57,16c-5.37,10.69-14.93,14.66-26.06,10.77s-21.52-9.69-29.7-18.86c-6.2-6.93-7.94-14.94-7.35-23.69.48-7.14,1.49-14.26,2.37-21.37a13,13,0,0,0-2.78-10,123.84,123.84,0,0,1-7.55-10.53c-5.59-8.92-6.76-18.58-4.67-28.86a90.41,90.41,0,0,1,10.17-27.31c2.89-5,2.3-7.91-1.71-12.34-3.64-4-7.5-7.93-10.58-12.36-11.64-16.8-8.78-33.9-.22-50.83a87.42,87.42,0,0,1,7.3-11.59c2.21-3.06,1.89-5.55-.37-8.34a84.79,84.79,0,0,1-6.71-9.28c-5.4-8.91-6.08-18.53-2.62-28.15a73.18,73.18,0,0,1,8.25-16.5c4.1-6,4.14-11.59,1.12-17.76-2.93-6-5.63-12.09-8.62-18.05a35.73,35.73,0,0,1-3.7-20.12c.42-4.19,2-7.5,6-9.52a11.14,11.14,0,0,0,3.85-3.81c11.41-17.24,27.13-28.85,46.54-35.53a62,62,0,0,1,13-2.92c8.24-1,16,.67,22.8,5.77,2.9,2.19,5.48,2.07,8.43,0,23.31-16.28,56.43-12.49,76.37,4.36,5.61,4.73,9.64,10.6,11.17,17.91a7,7,0,0,0,5.42,5.87c12.46,3.32,21.16,11.62,27.7,22.13C1913.58,324.63,1917.62,333.86,1916.64,343.84Z" transform="translate(0 -233.44)" style="fill:#fff"/><path d="M892.49,616.52c-3.76-1-8.64-1.69-13.07-3.51-3.58-1.46-3.3-3.9.09-5.85,5.48-3.16,5.51-3.61,1-8.14-10.11-10.17-15.34-22.21-14.13-36.77.44-5.29.56-10.6.82-15.91a22.48,22.48,0,0,0-4.69-14.85c-3.4-4.67-6.91-9.46-9.2-14.71-5.25-12-2.78-24.21.42-36.26.83-3.09,2.1-6.07,3.19-9.09a6.34,6.34,0,0,0-2-7.64Q837,448.85,842.77,426.28c2-8,4-16,6.37-24,1.23-4.2.85-8-2-11.14-9-9.81-9.56-21.25-6.87-33.36,1.15-5.17,2.6-10.28,4-15.4a17.66,17.66,0,0,0-2.15-14.58c-2.21-3.56-4.2-7.27-6.52-10.77-7.19-10.84-9.26-22.75-7.3-35.4a82.39,82.39,0,0,1,3.23-12.07,6.58,6.58,0,0,1,2.54-3.54c4.53-2.61,6.72-7,9.33-11.15,5.43-8.72,13.92-13.64,23.3-16.83,15.7-5.33,31.54-6.79,47.42-.32,8.8,3.58,15.77,9.11,20.11,17.69,2.07,4.11,3.38,4.52,8,3.76,17.25-2.85,32.77.09,44.76,14.06a37.1,37.1,0,0,1,8.21,17.6c.9,4.77,1.94,5.68,6.86,6,18,1.32,31.93,9.88,42.3,24.19,8.73,12.06,10,25.31,3.89,39-1.72,3.86-1.11,6.3,2.25,8.85,14.08,10.68,21.24,25.37,22.44,42.62,1,13.64-3.9,25.86-13.42,35.76-3.41,3.54-3.5,6.57-2,10.94,4.33,12.8,4.88,25.62-1.21,38.22a38.42,38.42,0,0,1-22.54,20.26c-4.16,1.47-6,3.82-6.7,8.18-3.29,19.61-15.43,31.37-34,37.15a14,14,0,0,1-2.52.62c-4.88.6-7.7,3-9.42,7.93-4.7,13.4-15.26,20.53-28.31,24.42-3.76,1.12-7.81,1.29-11.56,2.43-3,.9-6.52,1.93-8.37,4.12-6.16,7.29-14.42,10.29-23.1,12.43C904.57,615.26,899.11,615.59,892.49,616.52Zm33.24-116.64a55.14,55.14,0,0,0,2.93,6.93c.49.83,2,1.05,3.09,1.54.26-1.09.94-2.3.69-3.26a7.83,7.83,0,0,1,3-8.91,105.08,105.08,0,0,1,10.27-6.49c4.81-2.78,9.88-5.13,14.53-8.14,9-5.84,13.64-15.08,7.21-26.05-2.63-4.49-1.68-8.65,1.9-12.56.92-1,1.92-1.93,2.84-2.93,8.71-9.4,7.44-19.81-3.24-26.62-4.5-2.87-5.62-7.19-2.92-11.79a19,19,0,0,1,2.81-3.41c5.48-5.7,6.14-9.9,2.48-16.28-4.33-7.54-9.1-9.81-16.44-8-3.48.87-6.68.2-9.1-2.61s-2.5-6.06-1-9.37a15.91,15.91,0,0,1,1.48-2.56c2-2.9,2-5.91.93-9.18-4.07-12.23-15.54-19.1-29.09-15.86-5.47,1.3-8.78,4.48-9.63,9.93-1.4,9,.9,16.84,7.52,23.34,4.64,4.55,4.7,6.79,1.38,12.38a61.3,61.3,0,0,0-4.62,9.24c-2.11,5.53-.51,10.53,3.37,14.69a35.5,35.5,0,0,0,6.65,5.26c6.08,4,7.3,8.38,3.88,14.83-.64,1.2-1.59,2.25-2.12,3.49-2.67,6.22-6,12.28-7.67,18.77-2.27,9-.56,16.44,9.44,21.16,5.9,2.79,7.34,7.31,5.31,13.62S927.69,493.52,925.73,499.88Z" transform="translate(0 -233.44)" style="fill:#fff"/><path d="M550.43,663.61c.35-11.06,5.25-20.46,11.16-29.37A70.07,70.07,0,0,1,585,612.46a8.94,8.94,0,0,0,4.78-8.13c.73-20.6,8.86-38.27,21.66-54,2.08-2.56,4.85-4.55,7.28-6.84,2.22-2.09,2.63-4.37.59-6.86C607.51,522.23,609,506,613.55,489.77a73.32,73.32,0,0,1,20-32.94c2.47-2.4,3-4.9,1.49-8-8.66-17.23-1-42,11-53.45,1-.94,1.9-1.95,2.9-2.87,2.21-2,2.6-4.2,1.12-6.95-6.13-11.38-6.11-23.29-2.06-35.19,2.55-7.5,7.9-13,14.62-17.16a24.2,24.2,0,0,0,6.69-5.64C675.53,319.14,698,311.7,709,318a28.64,28.64,0,0,1,11.15,10.9c1.36,2.35,3.83,5.09,6.25,5.62,11,2.41,18.52,9.44,24.36,18.19,7.22,10.81,10.54,22.85,7.39,36a50,50,0,0,1-2.39,6.59c-1.34,3.31-1.14,6.11,1.85,8.62,14,11.81,19.67,27.2,17,45-1.31,8.86.28,15.07,6.17,22.24,9,10.92,11.35,24.48,7.29,38.51a86.42,86.42,0,0,1-4.18,11.07c-1.38,3.1-.66,5.11,2.23,6.76,4.38,2.51,9,4.79,12.91,7.92,9.64,7.68,14.51,17.94,14.52,30.3a21.09,21.09,0,0,1-1.4,8c-2,4.94-.84,8.37,2.93,12.14,9.87,9.89,12.51,22.4,11,35.85-.43,3.7-2.57,7.18-3.58,10.86-.6,2.17-1.18,4.68-.66,6.77,5.24,20.83-4.18,38-24.78,44.2-3.76,1.13-5.94,2.81-6.76,6.76-1,4.65-4.59,6.5-9,6.93-11.22,1.08-19.73-3.86-26-12.63-2.71-3.77-5.69-5.29-10.23-5.08-7.95.38-14-3.27-18.41-9.77-7.71-11.28-9.69-23.85-8.36-37.13.29-2.92,0-5.45-2.55-7.22-9.67-6.64-14.19-16.49-17.11-27.35-.57-2.14-1-4.34-1.71-6.44-.91-2.73-2.61-3.46-5.08-1.63-4.36,3.22-9,6.17-13,9.76-1.63,1.44-2.58,4.17-2.93,6.45-1.39,9-3.54,17.69-7.73,25.79-4.9,9.49-12,16.54-22.48,19.72-3.44,1.05-5.16,3.47-6.28,6.71-2.72,7.88-6.3,15.25-12,21.5A37.57,37.57,0,0,1,610.25,691a18.31,18.31,0,0,1-16-2.12c-3.58-2.32-7-2.56-11.23-1.81-10.06,1.78-19.13-1.1-26.65-8.05C552.08,675.05,550.46,670.16,550.43,663.61Zm152.14-222c-.73-6.45-.54-11.95-4.6-16.13-3-3.07-5.91-2.36-7.19,1.69-.56,1.77-.87,3.62-1.53,5.34-2.45,6.35-1.52,11.91,3,17.22s3.72,10-2.08,14a34.56,34.56,0,0,0-13,17.15c-.88,2.52-1.13,6.21.12,8.29,1.72,2.87,5.1.95,7.77.09,5-1.62,8.89.36,10.38,5.37.67,2.24.91,4.6,1.52,6.86s2,4,4.56,3.17c5.88-1.93,8.18-7.25,10.6-12.21,1.61-3.31-.7-5.85-2.65-8.3-4.14-5.25-7.1-10.88-6.92-17.9C702.74,457.7,702.57,449.07,702.57,441.64Z" transform="translate(0 -233.44)" style="fill:#fff"/><path d="M583.8,409c-1.18,4.49-1.94,9.16-3.66,13.43-1.87,4.64-1.6,8,1.8,12.09,12.32,14.63,14.24,33.82,5.37,50.14a52.53,52.53,0,0,1-6.34,8.64,7.77,7.77,0,0,0-1.52,8.23c1.77,5.28,2.93,10.57,2.34,16.33-1,9.48-5.08,16.92-12.69,22.46-2.68,1.94-4.49,4.22-4.49,7.63,0,15.17-12.18,28.07-27.39,31.92-7.87,2-15.71,3-23.84,1.91-6-.82-8.1,0-9.85,5.41-5.06,15.57-17.67,22.56-31.32,28.28-11.19,4.69-22.91,5.06-34.54,1.82-12.76-3.56-22.38-11.2-28.27-23.3-2.69-5.54-3.56-6-9.52-5.23-20.14,2.61-36.38-12.73-39.57-30.68-1.19-6.72-1.19-13.72-1.13-20.58,0-4.81-.51-8.46-5.42-11-13.55-6.89-19.69-19.05-17.15-34.08,3.05-18,10.38-33.95,23.43-47,2.56-2.56,3.39-5,1-8.11-12.05-16-7.37-34.08,4.11-47.48a45.68,45.68,0,0,1,21.33-14.19,23,23,0,0,1,8-1c3.51.19,6.06-.83,7.58-4,.85-1.77,1.59-3.6,2.29-5.44,3.32-8.7,7.94-16.37,15.86-21.8,12.09-8.29,31.51-7.36,43.45,4.23.71.69,1.4,1.39,2.12,2.07,3.52,3.39,4.75,3.49,9.16,1.25,11.61-5.86,23.57-7.63,36.19-3.4,9.13,3.07,16.18,8.58,20.46,17.14,2.15,4.31,5,5.77,9.65,5.64,14-.4,26,4.19,34.49,15.91A41.83,41.83,0,0,1,583.8,409Z" transform="translate(0 -233.44)" style="fill:#fff"/><path d="M1597.18,415.87c-1,5.49-1.89,12.09-3.57,18.47-1,3.62-.6,5.88,2.37,8.34,17.28,14.36,23.85,32.72,19.91,54.84a4.52,4.52,0,0,1-.39,1.43c-3.91,6.93-2.15,12.67,1.79,19.47,8.19,14.08,11,29.55,6.11,45.64-1.53,5-.43,8.72,3,12.79,8.74,10.4,12.45,22.57,10.43,36.21a11.54,11.54,0,0,1-1.33,4.59c-3.15,4.82-2.35,9.45-1,14.81,3,12.39.75,23.68-9.89,31.91-6.72,5.2-14.18,8.93-22.57,9.57-8.92.69-17.6-1.11-25.15-6.52a31.6,31.6,0,0,0-3.41-2.22c-14-7.42-18.43-20-18.3-34.68,0-4.19-.71-7.06-4.34-9.31-8.76-5.44-12-14-13-23.78-.27-2.69,0-5.43-.09-8.15-.1-5.77-3.08-8.18-8.65-6.51-2,.59-3.7,2.29-5.47,3.57-5.08,3.64-9.95,7.64-15.27,10.87-2.94,1.8-4.43,3.67-5,7.08-2.17,13-7.51,23.93-20,30.33-1.78.91-3.29,3.71-3.61,5.83-1.75,11.76-3.67,23.43-9.3,34.12a26,26,0,0,1-11.92,11.29c-15.31,7.36-30.09-3-28.73-20,.39-4.8.78-9.62,1.53-14.37a32.62,32.62,0,0,0-4.8-23.72c-8.31-12.9-7-26.38-1.4-39.72,2.71-6.46,6.39-12.51,9.79-18.66,1.68-3,2.49-6,.44-9.07-9.69-14.47-7.32-29-.47-43.68,4.39-9.41,10.72-17.44,17.58-25.11.24-.27.51-.53.76-.81,6.42-7,6.41-7.27.74-14.86a70.25,70.25,0,0,1-4.19-6.11c-6.92-11.69-6.07-21.09,1.87-32.84,4.39-6.52,10.68-10.89,17.2-15,4.47-2.82,4.63-3.73,3.71-8.83-1.48-8.24-3.59-16.52-1.55-24.95,3.16-13.12,8.83-24.69,21.17-31.64a24.73,24.73,0,0,1,7.62-2.5c3.27-.61,6-1.61,8.24-4.36,11.81-14.65,35.07-12.73,44,3.89,2.77,5.12,4.35,11,5.71,16.72,1,4.29,2.85,6.72,7.27,7.59,14.62,2.9,24,12,29.35,25.59C1595.77,407,1596.1,410.85,1597.18,415.87Zm-52,84.24c-1.13-11.19-1.82-22-3.41-32.75a52,52,0,0,0-12-25.92c-2.9-3.47-4.78-3.15-7,.77a25.92,25.92,0,0,0-2.78,17.62c1.79,9.36-1.3,16.78-6.65,24.1a68.61,68.61,0,0,0-7.61,14.28c-1.85,4.47,0,9.07,4.59,10.15,7.66,1.79,13.42,5.16,17.3,12.28,1.85,3.38,5.94,3.13,8.57.24C1541.71,514.9,1544,507.56,1545.18,500.11Z" transform="translate(0 -233.44)" style="fill:#fff"/></svg>