<svg id="Layer_1" data-name="Layer 1" xmlns="http://www.w3.org/2000/svg" viewBox="0 0 64 64"><path d="M44,23.78A13.21,13.21,0,0,0,36.4,21l-.44.44a17.24,17.24,0,0,1,6.76,3.38,22.55,22.55,0,0,0-8.22-2.5,15,15,0,0,0-2.5-.14,15,15,0,0,0-2.5.14,22.55,22.55,0,0,0-8.22,2.5A17.24,17.24,0,0,1,28,21.43L27.6,21A13.21,13.21,0,0,0,20,23.78a34.93,34.93,0,0,0-4,15.41A11.79,11.79,0,0,0,24.51,43s1-1.18,1.77-2.2a8.21,8.21,0,0,1-4.85-3.09,31.53,31.53,0,0,0,3.08,1.62,19.89,19.89,0,0,0,4,1.17,27.86,27.86,0,0,0,3.52.3,27.86,27.86,0,0,0,3.52-.3,19.89,19.89,0,0,0,4-1.17,31.53,31.53,0,0,0,3.08-1.62,8.21,8.21,0,0,1-4.85,3.09c.74,1,1.77,2.2,1.77,2.2A11.79,11.79,0,0,0,48,39.19,34.93,34.93,0,0,0,44,23.78ZM27.16,36.55A2.94,2.94,0,1,1,30,33.61,2.92,2.92,0,0,1,27.16,36.55Zm9.68,0a2.94,2.94,0,1,1,2.79-2.94A2.92,2.92,0,0,1,36.84,36.55Z"/></svg>