<svg id="Layer_1" data-name="Layer 1" xmlns="http://www.w3.org/2000/svg" viewBox="0 0 64 64"><path d="M48,22.07a12.93,12.93,0,0,1-3.77,1,6.57,6.57,0,0,0,2.89-3.63A13.29,13.29,0,0,1,43,21.07a6.57,6.57,0,0,0-11.36,4.49,6.69,6.69,0,0,0,.17,1.5A18.66,18.66,0,0,1,18.23,20.2a6.56,6.56,0,0,0,2,8.76,6.46,6.46,0,0,1-3-.82v.09a6.56,6.56,0,0,0,5.26,6.43,6.57,6.57,0,0,1-1.73.23,7.12,7.12,0,0,1-1.23-.11,6.56,6.56,0,0,0,6.13,4.55,13.13,13.13,0,0,1-8.15,2.82,13.5,13.5,0,0,1-1.57-.1,18.54,18.54,0,0,0,10.06,3c12.08,0,18.68-10,18.68-18.67,0-.29,0-.57,0-.85A13.29,13.29,0,0,0,48,22.07Z"/></svg>